  0
SECTION
  2
HEADER
  9
$ACADVER
  1
AC1014
  9
$HANDSEED
  5
FFFF
  9
$MEASUREMENT
 70
     1
  0
ENDSEC
  0
SECTION
  2
TABLES
  0
TABLE
  2
VPORT
  5
8
330
0
100
AcDbSymbolTable
 70
     4
  0
VPORT
  5
2E
330
8
100
AcDbSymbolTableRecord
100
AcDbViewportTableRecord
  2
*ACTIVE
 70
     0
 10
0.0
 20
0.0
 11
1.0
 21
1.0
 12
210.0
 22
148.5
 13
0.0
 23
0.0
 14
10.0
 24
10.0
 15
10.0
 25
10.0
 16
0.0
 26
0.0
 36
1.0
 17
0.0
 27
0.0
 37
0.0
 40
341.0
 41
1.24
 42
50.0
 43
0.0
 44
0.0
 50
0.0
 51
0.0
 71
     0
 72
   100
 73
     1
 74
     3
 75
     0
 76
     0
 77
     0
 78
     0
  0
ENDTAB
  0
TABLE
  2
LTYPE
  5
5
330
0
100
AcDbSymbolTable
 70
     1
  0
LTYPE
  5
14
330
5
100
AcDbSymbolTableRecord
100
AcDbLinetypeTableRecord
  2
BYBLOCK
 70
     0
  3

 72
    65
 73
     0
 40
0.0
  0
LTYPE
  5
15
330
5
100
AcDbSymbolTableRecord
100
AcDbLinetypeTableRecord
  2
BYLAYER
 70
     0
  3

 72
    65
 73
     0
 40
0.0
  0
LTYPE
  5
16
330
5
100
AcDbSymbolTableRecord
100
AcDbLinetypeTableRecord
  2
CONTINUOUS
 70
     0
  3
Solid line
 72
    65
 73
     0
 40
0.0
  0
ENDTAB
  0
TABLE
  2
LAYER
  5
2
100
AcDbSymbolTable
 70
1
  0
LAYER
  5
50
100
AcDbSymbolTableRecord
100
AcDbLayerTableRecord
  2
0
 70
0
  6
CONTINUOUS
  0
ENDTAB
  0
TABLE
  2
STYLE
  5
3
330
0
100
AcDbSymbolTable
 70
     1
  0
STYLE
  5
11
330
3
100
AcDbSymbolTableRecord
100
AcDbTextStyleTableRecord
  2
STANDARD
 70
     0
 40
0.0
 41
1.0
 50
0.0
 71
     0
 42
2.5
  3
txt
  4

  0
ENDTAB
  0
TABLE
  2
VIEW
  5
6
330
0
100
AcDbSymbolTable
 70
     0
  0
ENDTAB
  0
TABLE
  2
UCS
  5
7
330
0
100
AcDbSymbolTable
 70
     0
  0
ENDTAB
  0
TABLE
  2
APPID
  5
9
330
0
100
AcDbSymbolTable
 70
     2
  0
APPID
  5
12
330
9
100
AcDbSymbolTableRecord
100
AcDbRegAppTableRecord
  2
ACAD
 70
     0
  0
ENDTAB
  0
TABLE
  2
DIMSTYLE
  5
A
330
0
100
AcDbSymbolTable
 70
     1
  0
DIMSTYLE
105
27
330
A
100
AcDbSymbolTableRecord
100
AcDbDimStyleTableRecord
  2
ISO-25
 70
     0
  3

  4

  5

  6

  7

 40
1.0
 41
2.5
 42
0.625
 43
3.75
 44
1.25
 45
0.0
 46
0.0
 47
0.0
 48
0.0
140
2.5
141
2.5
142
0.0
143
0.03937007874016
144
1.0
145
0.0
146
1.0
147
0.625
 71
     0
 72
     0
 73
     0
 74
     0
 75
     0
 76
     0
 77
     1
 78
     8
170
     0
171
     3
172
     1
173
     0
174
     0
175
     0
176
     0
177
     0
178
     0
270
     2
271
     2
272
     2
273
     2
274
     3
340
11
275
     0
280
     0
281
     0
282
     0
283
     0
284
     8
285
     0
286
     0
287
     3
288
     0
  0
ENDTAB
  0
TABLE
  2
BLOCK_RECORD
  5
1
330
0
100
AcDbSymbolTable
 70
     1
  0
BLOCK_RECORD
  5
1F
330
1
100
AcDbSymbolTableRecord
100
AcDbBlockTableRecord
  2
*MODEL_SPACE
  0
BLOCK_RECORD
  5
1B
330
1
100
AcDbSymbolTableRecord
100
AcDbBlockTableRecord
  2
*PAPER_SPACE
  0
ENDTAB
  0
ENDSEC
  0
SECTION
  2
BLOCKS
  0
BLOCK
  5
20
330
1F
100
AcDbEntity
  8
0
100
AcDbBlockBegin
  2
*MODEL_SPACE
 70
     0
 10
0.0
 20
0.0
 30
0.0
  3
*MODEL_SPACE
  1

  0
ENDBLK
  5
21
330
1F
100
AcDbEntity
  8
0
100
AcDbBlockEnd
  0
BLOCK
  5
1C
330
1B
100
AcDbEntity
 67
     1
  8
0
100
AcDbBlockBegin
  2
*PAPER_SPACE
  1

  0
ENDBLK
  5
1D
330
1B
100
AcDbEntity
 67
     1
  8
0
100
AcDbBlockEnd
  0
ENDSEC
  0
SECTION
  2
ENTITIES
  0
LWPOLYLINE
  5
100
100
AcDbEntity
  8
0
 62
7
100
AcDbPolyline
 90
360
 70
1
 10
-60.275024
 20
598.669133
 30
0.0
 10
-59.649038
 20
598.323163
 30
0.0
 10
-59.065721
 20
597.909280
 30
0.0
 10
-58.532421
 20
597.432689
 30
0.0
 10
-58.055826
 20
596.899384
 30
0.0
 10
-57.641951
 20
596.316072
 30
0.0
 10
-57.295979
 20
595.690086
 30
0.0
 10
-57.022271
 20
595.029300
 30
0.0
 10
-56.824270
 20
594.342024
 30
0.0
 10
-56.704468
 20
593.636900
 30
0.0
 10
-56.664362
 20
592.922796
 30
0.0
 10
-56.704468
 20
592.208692
 30
0.0
 10
-56.824270
 20
591.503568
 30
0.0
 10
-57.022271
 20
590.816292
 30
0.0
 10
-57.295979
 20
590.155506
 30
0.0
 10
-57.641951
 20
589.529521
 30
0.0
 10
-58.055826
 20
588.946208
 30
0.0
 10
-58.532421
 20
588.412903
 30
0.0
 10
-59.065721
 20
587.936311
 30
0.0
 10
-59.649038
 20
587.522429
 30
0.0
 10
-60.275024
 20
587.176460
 30
0.0
 10
-60.935812
 20
586.902753
 30
0.0
 10
-61.623087
 20
586.704753
 30
0.0
 10
-62.328209
 20
586.584947
 30
0.0
 10
-63.042314
 20
586.544844
 30
0.0
 10
-65.168295
 20
586.544844
 30
0.0
 10
-65.667166
 20
586.505583
 30
0.0
 10
-66.153745
 20
586.388764
 30
0.0
 10
-66.616064
 20
586.197266
 30
0.0
 10
-67.042734
 20
585.935804
 30
0.0
 10
-67.423244
 20
585.610816
 30
0.0
 10
-67.748233
 20
585.230302
 30
0.0
 10
-68.009697
 20
584.803634
 30
0.0
 10
-68.201197
 20
584.341317
 30
0.0
 10
-68.318012
 20
583.854734
 30
0.0
 10
-68.357277
 20
583.355867
 30
0.0
 10
-68.357283
 20
535.646359
 30
0.0
 10
-68.384422
 20
535.231150
 30
0.0
 10
-68.465401
 20
534.823013
 30
0.0
 10
-68.598816
 20
534.428896
 30
0.0
 10
-68.782419
 20
534.055504
 30
0.0
 10
-69.013075
 20
533.709194
 30
0.0
 10
-69.449844
 20
533.072817
 30
0.0
 10
-69.819042
 20
532.394995
 30
0.0
 10
-70.116783
 20
531.682886
 30
0.0
 10
-70.339914
 20
530.944004
 30
0.0
 10
-70.486107
 20
530.186131
 30
0.0
 10
-70.553804
 20
529.417259
 30
0.0
 10
-70.542297
 20
528.645498
 30
0.0
 10
-70.451712
 20
527.878990
 30
0.0
 10
-70.282997
 20
527.125809
 30
0.0
 10
-70.037928
 20
526.393902
 30
0.0
 10
-69.719095
 20
525.690989
 30
0.0
 10
-69.329853
 20
525.024473
 30
0.0
 10
-68.874315
 20
524.401394
 30
0.0
 10
-68.357283
 20
523.828308
 30
0.0
 10
-67.784203
 20
523.311275
 30
0.0
 10
-67.161118
 20
522.855732
 30
0.0
 10
-66.494608
 20
522.466502
 30
0.0
 10
-65.791689
 20
522.147658
 30
0.0
 10
-65.059788
 20
521.902594
 30
0.0
 10
-64.306601
 20
521.733873
 30
0.0
 10
-63.540098
 20
521.643288
 30
0.0
 10
-62.768337
 20
521.631781
 30
0.0
 10
-61.999460
 20
521.699478
 30
0.0
 10
-61.241587
 20
521.845671
 30
0.0
 10
-60.502705
 20
522.068813
 30
0.0
 10
-59.790602
 20
522.366548
 30
0.0
 10
-59.112774
 20
522.735752
 30
0.0
 10
-58.476397
 20
523.172516
 30
0.0
 10
-58.130087
 20
523.403166
 30
0.0
 10
-57.756695
 20
523.586769
 30
0.0
 10
-57.362578
 20
523.720190
 30
0.0
 10
-56.954441
 20
523.801163
 30
0.0
 10
-56.539238
 20
523.828308
 30
0.0
 10
-8.829723
 20
523.828303
 30
0.0
 10
-8.330857
 20
523.867573
 30
0.0
 10
-7.844276
 20
523.984388
 30
0.0
 10
-7.381958
 20
524.175888
 30
0.0
 10
-6.955290
 20
524.437351
 30
0.0
 10
-6.574777
 20
524.762335
 30
0.0
 10
-6.249787
 20
525.142851
 30
0.0
 10
-5.988324
 20
525.569521
 30
0.0
 10
-5.796826
 20
526.031840
 30
0.0
 10
-5.680007
 20
526.518419
 30
0.0
 10
-5.640746
 20
527.017290
 30
0.0
 10
-5.640746
 20
529.143271
 30
0.0
 10
-5.600643
 20
529.857376
 30
0.0
 10
-5.480837
 20
530.562498
 30
0.0
 10
-5.282837
 20
531.249773
 30
0.0
 10
-5.009130
 20
531.910561
 30
0.0
 10
-4.663161
 20
532.536547
 30
0.0
 10
-4.249278
 20
533.119858
 30
0.0
 10
-3.772687
 20
533.653164
 30
0.0
 10
-3.239382
 20
534.129759
 30
0.0
 10
-2.656069
 20
534.543635
 30
0.0
 10
-2.030083
 20
534.889607
 30
0.0
 10
-1.369297
 20
535.163309
 30
0.0
 10
-0.682021
 20
535.361314
 30
0.0
 10
0.023103
 20
535.481117
 30
0.0
 10
0.737207
 20
535.521223
 30
0.0
 10
1.451311
 20
535.481117
 30
0.0
 10
2.156435
 20
535.361314
 30
0.0
 10
2.843711
 20
535.163309
 30
0.0
 10
3.504496
 20
534.889607
 30
0.0
 10
4.130482
 20
534.543635
 30
0.0
 10
4.713795
 20
534.129759
 30
0.0
 10
5.247100
 20
533.653164
 30
0.0
 10
5.723691
 20
533.119858
 30
0.0
 10
6.137573
 20
532.536547
 30
0.0
 10
6.483543
 20
531.910561
 30
0.0
 10
6.757249
 20
531.249773
 30
0.0
 10
6.955250
 20
530.562498
 30
0.0
 10
7.075055
 20
529.857376
 30
0.0
 10
7.115159
 20
529.143271
 30
0.0
 10
7.115159
 20
527.017290
 30
0.0
 10
7.154420
 20
526.518419
 30
0.0
 10
7.271238
 20
526.031840
 30
0.0
 10
7.462737
 20
525.569521
 30
0.0
 10
7.724199
 20
525.142851
 30
0.0
 10
8.049188
 20
524.762335
 30
0.0
 10
8.429701
 20
524.437351
 30
0.0
 10
8.856371
 20
524.175888
 30
0.0
 10
9.318687
 20
523.984388
 30
0.0
 10
9.805268
 20
523.867573
 30
0.0
 10
10.304134
 20
523.828303
 30
0.0
 10
58.013649
 20
523.828303
 30
0.0
 10
58.428858
 20
523.801157
 30
0.0
 10
58.836995
 20
523.720178
 30
0.0
 10
59.231111
 20
523.586764
 30
0.0
 10
59.604504
 20
523.403160
 30
0.0
 10
59.950807
 20
523.172510
 30
0.0
 10
60.587191
 20
522.735741
 30
0.0
 10
61.265013
 20
522.366543
 30
0.0
 10
61.977121
 20
522.068802
 30
0.0
 10
62.716003
 20
521.845665
 30
0.0
 10
63.473877
 20
521.699473
 30
0.0
 10
64.242749
 20
521.631775
 30
0.0
 10
65.014509
 20
521.643282
 30
0.0
 10
65.781017
 20
521.733868
 30
0.0
 10
66.534199
 20
521.902588
 30
0.0
 10
67.266106
 20
522.147652
 30
0.0
 10
67.969019
 20
522.466489
 30
0.0
 10
68.635534
 20
522.855726
 30
0.0
 10
69.258613
 20
523.311264
 30
0.0
 10
69.831694
 20
523.828303
 30
0.0
 10
70.348732
 20
524.401382
 30
0.0
 10
70.804270
 20
525.024467
 30
0.0
 10
71.193506
 20
525.690977
 30
0.0
 10
71.512344
 20
526.393896
 30
0.0
 10
71.757408
 20
527.125797
 30
0.0
 10
71.926129
 20
527.878985
 30
0.0
 10
72.016714
 20
528.645487
 30
0.0
 10
72.028221
 20
529.417248
 30
0.0
 10
71.960524
 20
530.186119
 30
0.0
 10
71.814331
 20
530.943998
 30
0.0
 10
71.591195
 20
531.682880
 30
0.0
 10
71.293453
 20
532.394983
 30
0.0
 10
70.924256
 20
533.072806
 30
0.0
 10
70.487492
 20
533.709188
 30
0.0
 10
70.256836
 20
534.055498
 30
0.0
 10
70.073233
 20
534.428890
 30
0.0
 10
69.939818
 20
534.823002
 30
0.0
 10
69.858839
 20
535.231144
 30
0.0
 10
69.831694
 20
535.646347
 30
0.0
 10
69.831699
 20
583.355861
 30
0.0
 10
69.792435
 20
583.854727
 30
0.0
 10
69.675619
 20
584.341310
 30
0.0
 10
69.484120
 20
584.803627
 30
0.0
 10
69.222656
 20
585.230295
 30
0.0
 10
68.897667
 20
585.610809
 30
0.0
 10
68.517157
 20
585.935798
 30
0.0
 10
68.090486
 20
586.197260
 30
0.0
 10
67.628168
 20
586.388758
 30
0.0
 10
67.141589
 20
586.505577
 30
0.0
 10
66.642717
 20
586.544838
 30
0.0
 10
64.516737
 20
586.544838
 30
0.0
 10
63.802631
 20
586.584942
 30
0.0
 10
63.097510
 20
586.704747
 30
0.0
 10
62.410229
 20
586.902748
 30
0.0
 10
61.749447
 20
587.176455
 30
0.0
 10
61.123461
 20
587.522424
 30
0.0
 10
60.540144
 20
587.936306
 30
0.0
 10
60.006844
 20
588.412897
 30
0.0
 10
59.530249
 20
588.946203
 30
0.0
 10
59.116373
 20
589.529516
 30
0.0
 10
58.770401
 20
590.155502
 30
0.0
 10
58.496693
 20
590.816287
 30
0.0
 10
58.298693
 20
591.503563
 30
0.0
 10
58.178891
 20
592.208687
 30
0.0
 10
58.138784
 20
592.922791
 30
0.0
 10
58.178891
 20
593.636895
 30
0.0
 10
58.298693
 20
594.342019
 30
0.0
 10
58.496693
 20
595.029295
 30
0.0
 10
58.770401
 20
595.690081
 30
0.0
 10
59.116373
 20
596.316066
 30
0.0
 10
59.530249
 20
596.899379
 30
0.0
 10
60.006844
 20
597.432684
 30
0.0
 10
60.540144
 20
597.909275
 30
0.0
 10
61.123461
 20
598.323158
 30
0.0
 10
61.749447
 20
598.669127
 30
0.0
 10
62.410229
 20
598.942834
 30
0.0
 10
63.097510
 20
599.140835
 30
0.0
 10
63.802631
 20
599.260640
 30
0.0
 10
64.516737
 20
599.300743
 30
0.0
 10
66.642717
 20
599.300743
 30
0.0
 10
67.141589
 20
599.340005
 30
0.0
 10
67.628168
 20
599.456823
 30
0.0
 10
68.090486
 20
599.648321
 30
0.0
 10
68.517157
 20
599.909783
 30
0.0
 10
68.897667
 20
600.234773
 30
0.0
 10
69.222656
 20
600.615286
 30
0.0
 10
69.484120
 20
601.041955
 30
0.0
 10
69.675619
 20
601.504271
 30
0.0
 10
69.792435
 20
601.990852
 30
0.0
 10
69.831699
 20
602.489719
 30
0.0
 10
69.831705
 20
650.199234
 30
0.0
 10
69.858845
 20
650.614437
 30
0.0
 10
69.939823
 20
651.022580
 30
0.0
 10
70.073238
 20
651.416696
 30
0.0
 10
70.256842
 20
651.790089
 30
0.0
 10
70.487497
 20
652.136393
 30
0.0
 10
70.924261
 20
652.772776
 30
0.0
 10
71.293465
 20
653.450598
 30
0.0
 10
71.591200
 20
654.162707
 30
0.0
 10
71.814337
 20
654.901583
 30
0.0
 10
71.960529
 20
655.659462
 30
0.0
 10
72.028232
 20
656.428334
 30
0.0
 10
72.016726
 20
657.200094
 30
0.0
 10
71.926140
 20
657.966602
 30
0.0
 10
71.757414
 20
658.719784
 30
0.0
 10
71.512350
 20
659.451691
 30
0.0
 10
71.193517
 20
660.154604
 30
0.0
 10
70.804276
 20
660.821114
 30
0.0
 10
70.348738
 20
661.444198
 30
0.0
 10
69.831705
 20
662.017279
 30
0.0
 10
69.258625
 20
662.534312
 30
0.0
 10
68.635540
 20
662.989855
 30
0.0
 10
67.969031
 20
663.379085
 30
0.0
 10
67.266111
 20
663.697930
 30
0.0
 10
66.534210
 20
663.942993
 30
0.0
 10
65.781023
 20
664.111714
 30
0.0
 10
65.014521
 20
664.202299
 30
0.0
 10
64.242760
 20
664.213806
 30
0.0
 10
63.473883
 20
664.146109
 30
0.0
 10
62.716009
 20
663.999916
 30
0.0
 10
61.977127
 20
663.776779
 30
0.0
 10
61.265024
 20
663.479039
 30
0.0
 10
60.587196
 20
663.109841
 30
0.0
 10
59.950819
 20
662.673076
 30
0.0
 10
59.604509
 20
662.442421
 30
0.0
 10
59.231117
 20
662.258818
 30
0.0
 10
58.837000
 20
662.125403
 30
0.0
 10
58.428863
 20
662.044424
 30
0.0
 10
58.013660
 20
662.017279
 30
0.0
 10
10.304140
 20
662.017285
 30
0.0
 10
9.805275
 20
661.978020
 30
0.0
 10
9.318694
 20
661.861204
 30
0.0
 10
8.856376
 20
661.669705
 30
0.0
 10
8.429708
 20
661.408241
 30
0.0
 10
8.049195
 20
661.083252
 30
0.0
 10
7.724205
 20
660.702742
 30
0.0
 10
7.462742
 20
660.276071
 30
0.0
 10
7.271245
 20
659.813753
 30
0.0
 10
7.154426
 20
659.327173
 30
0.0
 10
7.115165
 20
658.828303
 30
0.0
 10
7.115165
 20
656.702322
 30
0.0
 10
7.075061
 20
655.988216
 30
0.0
 10
6.955255
 20
655.283095
 30
0.0
 10
6.757255
 20
654.595813
 30
0.0
 10
6.483548
 20
653.935032
 30
0.0
 10
6.137579
 20
653.309046
 30
0.0
 10
5.723696
 20
652.725729
 30
0.0
 10
5.247105
 20
652.192423
 30
0.0
 10
4.713800
 20
651.715834
 30
0.0
 10
4.130487
 20
651.301958
 30
0.0
 10
3.504501
 20
650.955986
 30
0.0
 10
2.843716
 20
650.682278
 30
0.0
 10
2.156440
 20
650.484277
 30
0.0
 10
1.451316
 20
650.364470
 30
0.0
 10
0.737212
 20
650.324369
 30
0.0
 10
0.023108
 20
650.364470
 30
0.0
 10
-0.682016
 20
650.484277
 30
0.0
 10
-1.369292
 20
650.682278
 30
0.0
 10
-2.030078
 20
650.955986
 30
0.0
 10
-2.656064
 20
651.301958
 30
0.0
 10
-3.239377
 20
651.715834
 30
0.0
 10
-3.772682
 20
652.192423
 30
0.0
 10
-4.249272
 20
652.725729
 30
0.0
 10
-4.663155
 20
653.309046
 30
0.0
 10
-5.009125
 20
653.935032
 30
0.0
 10
-5.282831
 20
654.595813
 30
0.0
 10
-5.480832
 20
655.283095
 30
0.0
 10
-5.600637
 20
655.988216
 30
0.0
 10
-5.640741
 20
656.702322
 30
0.0
 10
-5.640740
 20
658.828303
 30
0.0
 10
-5.680001
 20
659.327173
 30
0.0
 10
-5.796820
 20
659.813753
 30
0.0
 10
-5.988318
 20
660.276071
 30
0.0
 10
-6.249781
 20
660.702742
 30
0.0
 10
-6.574770
 20
661.083252
 30
0.0
 10
-6.955283
 20
661.408241
 30
0.0
 10
-7.381952
 20
661.669705
 30
0.0
 10
-7.844269
 20
661.861204
 30
0.0
 10
-8.330850
 20
661.978020
 30
0.0
 10
-8.829716
 20
662.017285
 30
0.0
 10
-56.539226
 20
662.017290
 30
0.0
 10
-56.954435
 20
662.044429
 30
0.0
 10
-57.362572
 20
662.125409
 30
0.0
 10
-57.756689
 20
662.258824
 30
0.0
 10
-58.130081
 20
662.442427
 30
0.0
 10
-58.476385
 20
662.673082
 30
0.0
 10
-59.112768
 20
663.109846
 30
0.0
 10
-59.790590
 20
663.479039
 30
0.0
 10
-60.502699
 20
663.776779
 30
0.0
 10
-61.241581
 20
663.999916
 30
0.0
 10
-61.999454
 20
664.146109
 30
0.0
 10
-62.768326
 20
664.213806
 30
0.0
 10
-63.540087
 20
664.202299
 30
0.0
 10
-64.306595
 20
664.111714
 30
0.0
 10
-65.059776
 20
663.942993
 30
0.0
 10
-65.791683
 20
663.697930
 30
0.0
 10
-66.494597
 20
663.379085
 30
0.0
 10
-67.161112
 20
662.989861
 30
0.0
 10
-67.784192
 20
662.534323
 30
0.0
 10
-68.357271
 20
662.017290
 30
0.0
 10
-68.874310
 20
661.444210
 30
0.0
 10
-69.329847
 20
660.821125
 30
0.0
 10
-69.719083
 20
660.154615
 30
0.0
 10
-70.037922
 20
659.451697
 30
0.0
 10
-70.282991
 20
658.719795
 30
0.0
 10
-70.451712
 20
657.966608
 30
0.0
 10
-70.542297
 20
657.200106
 30
0.0
 10
-70.553804
 20
656.428345
 30
0.0
 10
-70.486107
 20
655.659468
 30
0.0
 10
-70.339914
 20
654.901594
 30
0.0
 10
-70.116772
 20
654.162712
 30
0.0
 10
-69.819031
 20
653.450609
 30
0.0
 10
-69.449833
 20
652.772781
 30
0.0
 10
-69.013070
 20
652.136404
 30
0.0
 10
-68.782414
 20
651.790094
 30
0.0
 10
-68.598810
 20
651.416702
 30
0.0
 10
-68.465395
 20
651.022585
 30
0.0
 10
-68.384417
 20
650.614448
 30
0.0
 10
-68.357271
 20
650.199245
 30
0.0
 10
-68.357277
 20
602.489725
 30
0.0
 10
-68.318012
 20
601.990859
 30
0.0
 10
-68.201197
 20
601.504278
 30
0.0
 10
-68.009697
 20
601.041961
 30
0.0
 10
-67.748233
 20
600.615292
 30
0.0
 10
-67.423244
 20
600.234779
 30
0.0
 10
-67.042734
 20
599.909789
 30
0.0
 10
-66.616064
 20
599.648327
 30
0.0
 10
-66.153745
 20
599.456829
 30
0.0
 10
-65.667166
 20
599.340010
 30
0.0
 10
-65.168295
 20
599.300749
 30
0.0
 10
-63.042314
 20
599.300749
 30
0.0
 10
-62.328209
 20
599.260645
 30
0.0
 10
-61.623087
 20
599.140840
 30
0.0
 10
-60.935812
 20
598.942839
 30
0.0
  0
LWPOLYLINE
  5
101
100
AcDbEntity
  8
0
 62
7
100
AcDbPolyline
 90
39
 70
1
 10
-55.861210
 20
617.077910
 30
0.0
 10
-56.338657
 20
617.116452
 30
0.0
 10
-56.803739
 20
617.231079
 30
0.0
 10
-57.244405
 20
617.418834
 30
0.0
 10
-57.649246
 20
617.674841
 30
0.0
 10
-58.007784
 20
617.992474
 30
0.0
 10
-58.310720
 20
618.363506
 30
0.0
 10
-58.550222
 20
618.778335
 30
0.0
 10
-58.720075
 20
619.226205
 30
0.0
 10
-58.815891
 20
619.695518
 30
0.0
 10
-58.835173
 20
620.174133
 30
0.0
 10
-58.777438
 20
620.649635
 30
0.0
 10
-58.644172
 20
621.109725
 30
0.0
 10
-58.438831
 20
621.542475
 30
0.0
 10
-58.166725
 20
621.936681
 30
0.0
 10
-57.834914
 20
622.282138
 30
0.0
 10
-57.451984
 20
622.569891
 30
0.0
 10
-57.027854
 20
622.792490
 30
0.0
 10
-56.573506
 20
622.944176
 30
0.0
 10
-56.100705
 20
623.021017
 30
0.0
 10
-55.621713
 20
623.021017
 30
0.0
 10
-55.148917
 20
622.944176
 30
0.0
 10
-54.694570
 20
622.792490
 30
0.0
 10
-54.270434
 20
622.569891
 30
0.0
 10
-53.887507
 20
622.282138
 30
0.0
 10
-53.555691
 20
621.936678
 30
0.0
 10
-53.283590
 20
621.542472
 30
0.0
 10
-53.078246
 20
621.109722
 30
0.0
 10
-52.944983
 20
620.649630
 30
0.0
 10
-52.887240
 20
620.174128
 30
0.0
 10
-52.906530
 20
619.695518
 30
0.0
 10
-53.002343
 20
619.226205
 30
0.0
 10
-53.172196
 20
618.778335
 30
0.0
 10
-53.411698
 20
618.363506
 30
0.0
 10
-53.714631
 20
617.992474
 30
0.0
 10
-54.073175
 20
617.674841
 30
0.0
 10
-54.478016
 20
617.418834
 30
0.0
 10
-54.918682
 20
617.231079
 30
0.0
 10
-55.383764
 20
617.116452
 30
0.0
  0
LWPOLYLINE
  5
102
100
AcDbEntity
  8
0
 62
7
100
AcDbPolyline
 90
39
 70
1
 10
-22.218418
 20
553.784174
 30
0.0
 10
-22.695861
 20
553.745624
 30
0.0
 10
-23.173306
 20
553.784174
 30
0.0
 10
-23.638385
 20
553.898800
 30
0.0
 10
-24.079056
 20
554.086556
 30
0.0
 10
-24.483896
 20
554.342563
 30
0.0
 10
-24.842434
 20
554.660196
 30
0.0
 10
-25.145373
 20
555.031228
 30
0.0
 10
-25.384871
 20
555.446057
 30
0.0
 10
-25.554727
 20
555.893927
 30
0.0
 10
-25.650540
 20
556.363240
 30
0.0
 10
-25.669830
 20
556.841855
 30
0.0
 10
-25.612088
 20
557.317357
 30
0.0
 10
-25.478821
 20
557.777444
 30
0.0
 10
-25.273480
 20
558.210194
 30
0.0
 10
-25.001378
 20
558.604402
 30
0.0
 10
-24.669564
 20
558.949857
 30
0.0
 10
-24.286631
 20
559.237609
 30
0.0
 10
-23.862503
 20
559.460212
 30
0.0
 10
-23.408155
 20
559.611898
 30
0.0
 10
-22.935361
 20
559.688733
 30
0.0
 10
-22.456363
 20
559.688733
 30
0.0
 10
-21.983569
 20
559.611898
 30
0.0
 10
-21.529220
 20
559.460212
 30
0.0
 10
-21.105090
 20
559.237609
 30
0.0
 10
-20.722159
 20
558.949857
 30
0.0
 10
-20.390344
 20
558.604402
 30
0.0
 10
-20.118243
 20
558.210194
 30
0.0
 10
-19.912901
 20
557.777444
 30
0.0
 10
-19.779635
 20
557.317357
 30
0.0
 10
-19.721900
 20
556.841855
 30
0.0
 10
-19.741183
 20
556.363240
 30
0.0
 10
-19.836995
 20
555.893927
 30
0.0
 10
-20.006850
 20
555.446057
 30
0.0
 10
-20.246350
 20
555.031228
 30
0.0
 10
-20.549289
 20
554.660196
 30
0.0
 10
-20.907823
 20
554.342563
 30
0.0
 10
-21.312668
 20
554.086556
 30
0.0
 10
-21.753337
 20
553.898800
 30
0.0
  0
LWPOLYLINE
  5
103
100
AcDbEntity
  8
0
 62
7
100
AcDbPolyline
 90
44
 70
1
 10
-63.346842
 20
626.107252
 30
0.0
 10
-63.727358
 20
626.432242
 30
0.0
 10
-64.052342
 20
626.812755
 30
0.0
 10
-64.313805
 20
627.239425
 30
0.0
 10
-64.505304
 20
627.701744
 30
0.0
 10
-64.622120
 20
628.188323
 30
0.0
 10
-64.661383
 20
628.687191
 30
0.0
 10
-64.661378
 20
634.807216
 30
0.0
 10
-64.622115
 20
635.306082
 30
0.0
 10
-64.505300
 20
635.792668
 30
0.0
 10
-64.313806
 20
636.254980
 30
0.0
 10
-64.052342
 20
636.681650
 30
0.0
 10
-63.727353
 20
637.062166
 30
0.0
 10
-63.346837
 20
637.387156
 30
0.0
 10
-62.920167
 20
637.648618
 30
0.0
 10
-62.457854
 20
637.840113
 30
0.0
 10
-61.971269
 20
637.956934
 30
0.0
 10
-61.472403
 20
637.996196
 30
0.0
 10
-55.352372
 20
637.996196
 30
0.0
 10
-54.853507
 20
637.956934
 30
0.0
 10
-54.366921
 20
637.840113
 30
0.0
 10
-53.904611
 20
637.648618
 30
0.0
 10
-53.477942
 20
637.387150
 30
0.0
 10
-53.097425
 20
637.062161
 30
0.0
 10
-52.772436
 20
636.681644
 30
0.0
 10
-52.510976
 20
636.254980
 30
0.0
 10
-52.319476
 20
635.792662
 30
0.0
 10
-52.202660
 20
635.306076
 30
0.0
 10
-52.163398
 20
634.807211
 30
0.0
 10
-52.163404
 20
628.687188
 30
0.0
 10
-52.202666
 20
628.188317
 30
0.0
 10
-52.319485
 20
627.701738
 30
0.0
 10
-52.510982
 20
627.239422
 30
0.0
 10
-52.772445
 20
626.812752
 30
0.0
 10
-53.097434
 20
626.432236
 30
0.0
 10
-53.477948
 20
626.107246
 30
0.0
 10
-53.904617
 20
625.845789
 30
0.0
 10
-54.366930
 20
625.654292
 30
0.0
 10
-54.853516
 20
625.537474
 30
0.0
 10
-55.352381
 20
625.498211
 30
0.0
 10
-61.472412
 20
625.498211
 30
0.0
 10
-61.971278
 20
625.537474
 30
0.0
 10
-62.457863
 20
625.654292
 30
0.0
 10
-62.920175
 20
625.845789
 30
0.0
  0
LWPOLYLINE
  5
104
100
AcDbEntity
  8
0
 62
7
100
AcDbPolyline
 90
65
 70
1
 10
-46.303268
 20
623.804377
 30
0.0
 10
-46.519135
 20
624.597221
 30
0.0
 10
-46.657474
 20
625.407200
 30
0.0
 10
-46.717001
 20
626.226751
 30
0.0
 10
-46.697149
 20
627.048217
 30
0.0
 10
-46.598100
 20
627.863938
 30
0.0
 10
-46.420791
 20
628.666285
 30
0.0
 10
-46.166866
 20
629.447777
 30
0.0
 10
-45.838707
 20
630.201116
 30
0.0
 10
-45.439371
 20
630.919255
 30
0.0
 10
-44.972587
 20
631.595510
 30
0.0
 10
-44.442714
 20
632.223553
 30
0.0
 10
-43.854699
 20
632.797526
 30
0.0
 10
-43.214033
 20
633.312066
 30
0.0
 10
-42.526698
 20
633.762374
 30
0.0
 10
-41.799112
 20
634.144241
 30
0.0
 10
-41.038068
 20
634.454106
 30
0.0
 10
-40.250672
 20
634.689062
 30
0.0
 10
-39.444275
 20
634.846939
 30
0.0
 10
-38.626403
 20
634.926247
 30
0.0
 10
-37.804694
 20
634.926247
 30
0.0
 10
-36.986825
 20
634.846939
 30
0.0
 10
-36.180423
 20
634.689062
 30
0.0
 10
-35.393027
 20
634.454106
 30
0.0
 10
-34.631983
 20
634.144241
 30
0.0
 10
-33.904397
 20
633.762374
 30
0.0
 10
-33.217061
 20
633.312066
 30
0.0
 10
-32.576395
 20
632.797526
 30
0.0
 10
-31.988384
 20
632.223553
 30
0.0
 10
-31.458513
 20
631.595510
 30
0.0
 10
-30.991726
 20
630.919255
 30
0.0
 10
-30.592391
 20
630.201116
 30
0.0
 10
-30.264231
 20
629.447777
 30
0.0
 10
-30.010307
 20
628.666285
 30
0.0
 10
-29.832999
 20
627.863938
 30
0.0
 10
-29.733952
 20
627.048217
 30
0.0
 10
-29.714092
 20
626.226751
 30
0.0
 10
-29.773612
 20
625.407200
 30
0.0
 10
-29.911952
 20
624.597221
 30
0.0
 10
-30.127823
 20
623.804377
 30
0.0
 10
-30.419204
 20
623.036067
 30
0.0
 10
-30.783376
 20
622.299462
 30
0.0
 10
-31.216943
 20
621.601450
 30
0.0
 10
-31.715855
 20
620.948536
 30
0.0
 10
-32.275451
 20
620.346831
 30
0.0
 10
-32.890508
 20
619.801938
 30
0.0
 10
-33.555281
 20
619.318952
 30
0.0
 10
-34.263572
 20
618.902378
 30
0.0
 10
-35.008757
 20
618.556109
 30
0.0
 10
-35.783883
 20
618.283379
 30
0.0
 10
-36.581714
 20
618.086729
 30
0.0
 10
-37.394799
 20
617.968005
 30
0.0
 10
-38.215547
 20
617.928307
 30
0.0
 10
-39.036294
 20
617.968005
 30
0.0
 10
-39.849383
 20
618.086729
 30
0.0
 10
-40.647213
 20
618.283379
 30
0.0
 10
-41.422335
 20
618.556109
 30
0.0
 10
-42.167523
 20
618.902378
 30
0.0
 10
-42.875813
 20
619.318952
 30
0.0
 10
-43.540588
 20
619.801938
 30
0.0
 10
-44.155645
 20
620.346831
 30
0.0
 10
-44.715242
 20
620.948536
 30
0.0
 10
-45.214146
 20
621.601450
 30
0.0
 10
-45.647717
 20
622.299462
 30
0.0
 10
-46.011888
 20
623.036067
 30
0.0
  0
LWPOLYLINE
  5
105
100
AcDbEntity
  8
0
 62
7
100
AcDbPolyline
 90
44
 70
1
 10
-52.240948
 20
581.501530
 30
0.0
 10
-51.778627
 20
581.310032
 30
0.0
 10
-51.351960
 20
581.048569
 30
0.0
 10
-50.971450
 20
580.723580
 30
0.0
 10
-50.646461
 20
580.343066
 30
0.0
 10
-50.384995
 20
579.916399
 30
0.0
 10
-50.193495
 20
579.454082
 30
0.0
 10
-50.076680
 20
578.967499
 30
0.0
 10
-50.037417
 20
578.468633
 30
0.0
 10
-50.037417
 20
561.718686
 30
0.0
 10
-50.076680
 20
561.219821
 30
0.0
 10
-50.193495
 20
560.733238
 30
0.0
 10
-50.384995
 20
560.270923
 30
0.0
 10
-50.646461
 20
559.844252
 30
0.0
 10
-50.971450
 20
559.463740
 30
0.0
 10
-51.351960
 20
559.138750
 30
0.0
 10
-51.778627
 20
558.877287
 30
0.0
 10
-52.240948
 20
558.685790
 30
0.0
 10
-52.727526
 20
558.568972
 30
0.0
 10
-53.226391
 20
558.529709
 30
0.0
 10
-59.346422
 20
558.529709
 30
0.0
 10
-59.845287
 20
558.568972
 30
0.0
 10
-60.331868
 20
558.685790
 30
0.0
 10
-60.794185
 20
558.877287
 30
0.0
 10
-61.220856
 20
559.138750
 30
0.0
 10
-61.601372
 20
559.463740
 30
0.0
 10
-61.926356
 20
559.844252
 30
0.0
 10
-62.187818
 20
560.270923
 30
0.0
 10
-62.379318
 20
560.733238
 30
0.0
 10
-62.496134
 20
561.219821
 30
0.0
 10
-62.535396
 20
561.718686
 30
0.0
 10
-62.535396
 20
578.468633
 30
0.0
 10
-62.496134
 20
578.967500
 30
0.0
 10
-62.379318
 20
579.454082
 30
0.0
 10
-62.187818
 20
579.916399
 30
0.0
 10
-61.926356
 20
580.343066
 30
0.0
 10
-61.601372
 20
580.723580
 30
0.0
 10
-61.220856
 20
581.048569
 30
0.0
 10
-60.794185
 20
581.310032
 30
0.0
 10
-60.331868
 20
581.501530
 30
0.0
 10
-59.845287
 20
581.618348
 30
0.0
 10
-59.346422
 20
581.657611
 30
0.0
 10
-53.226391
 20
581.657611
 30
0.0
 10
-52.727526
 20
581.618348
 30
0.0
  0
LWPOLYLINE
  5
106
100
AcDbEntity
  8
0
 62
7
100
AcDbPolyline
 90
44
 70
1
 10
-23.703561
 20
551.854568
 30
0.0
 10
-23.204693
 20
551.893831
 30
0.0
 10
-17.084667
 20
551.893831
 30
0.0
 10
-16.585801
 20
551.854568
 30
0.0
 10
-16.099220
 20
551.737747
 30
0.0
 10
-15.636902
 20
551.546250
 30
0.0
 10
-15.210234
 20
551.284787
 30
0.0
 10
-14.829721
 20
550.959798
 30
0.0
 10
-14.504731
 20
550.579285
 30
0.0
 10
-14.243269
 20
550.152617
 30
0.0
 10
-14.051770
 20
549.690302
 30
0.0
 10
-13.934951
 20
549.203717
 30
0.0
 10
-13.895689
 20
548.704857
 30
0.0
 10
-13.895689
 20
542.584828
 30
0.0
 10
-13.934951
 20
542.085963
 30
0.0
 10
-14.051769
 20
541.599383
 30
0.0
 10
-14.243268
 20
541.137062
 30
0.0
 10
-14.504731
 20
540.710395
 30
0.0
 10
-14.829721
 20
540.329882
 30
0.0
 10
-15.210233
 20
540.004892
 30
0.0
 10
-15.636902
 20
539.743430
 30
0.0
 10
-16.099220
 20
539.551932
 30
0.0
 10
-16.585801
 20
539.435111
 30
0.0
 10
-17.084666
 20
539.395849
 30
0.0
 10
-23.204691
 20
539.395849
 30
0.0
 10
-23.703560
 20
539.435111
 30
0.0
 10
-24.190142
 20
539.551932
 30
0.0
 10
-24.652459
 20
539.743430
 30
0.0
 10
-25.079125
 20
540.004892
 30
0.0
 10
-25.459640
 20
540.329882
 30
0.0
 10
-25.784627
 20
540.710395
 30
0.0
 10
-26.046091
 20
541.137062
 30
0.0
 10
-26.237589
 20
541.599383
 30
0.0
 10
-26.354409
 20
542.085963
 30
0.0
 10
-26.393672
 20
542.584828
 30
0.0
 10
-26.393672
 20
548.704857
 30
0.0
 10
-26.354409
 20
549.203717
 30
0.0
 10
-26.237589
 20
549.690302
 30
0.0
 10
-26.046091
 20
550.152617
 30
0.0
 10
-25.784627
 20
550.579285
 30
0.0
 10
-25.459640
 20
550.959798
 30
0.0
 10
-25.079125
 20
551.284787
 30
0.0
 10
-24.652459
 20
551.546250
 30
0.0
 10
-24.190142
 20
551.737747
 30
0.0
  0
LWPOLYLINE
  5
107
100
AcDbEntity
  8
0
 62
7
100
AcDbPolyline
 90
65
 70
1
 10
-30.010306
 20
553.193851
 30
0.0
 10
-29.832996
 20
552.391502
 30
0.0
 10
-29.733950
 20
551.575785
 30
0.0
 10
-29.714090
 20
550.754311
 30
0.0
 10
-29.773610
 20
549.934768
 30
0.0
 10
-29.911950
 20
549.124787
 30
0.0
 10
-30.127820
 20
548.331943
 30
0.0
 10
-30.419204
 20
547.563632
 30
0.0
 10
-30.783374
 20
546.827027
 30
0.0
 10
-31.216940
 20
546.129012
 30
0.0
 10
-31.715851
 20
545.476104
 30
0.0
 10
-32.275447
 20
544.874396
 30
0.0
 10
-32.890504
 20
544.329503
 30
0.0
 10
-33.555280
 20
543.846511
 30
0.0
 10
-34.263569
 20
543.429941
 30
0.0
 10
-35.008757
 20
543.083671
 30
0.0
 10
-35.783879
 20
542.810941
 30
0.0
 10
-36.581710
 20
542.614292
 30
0.0
 10
-37.394798
 20
542.495567
 30
0.0
 10
-38.215545
 20
542.455862
 30
0.0
 10
-39.036293
 20
542.495567
 30
0.0
 10
-39.849378
 20
542.614292
 30
0.0
 10
-40.647209
 20
542.810941
 30
0.0
 10
-41.422328
 20
543.083671
 30
0.0
 10
-42.167516
 20
543.429941
 30
0.0
 10
-42.875806
 20
543.846511
 30
0.0
 10
-43.540581
 20
544.329503
 30
0.0
 10
-44.155638
 20
544.874396
 30
0.0
 10
-44.715235
 20
545.476104
 30
0.0
 10
-45.214139
 20
546.129012
 30
0.0
 10
-45.647711
 20
546.827027
 30
0.0
 10
-46.011881
 20
547.563632
 30
0.0
 10
-46.303265
 20
548.331943
 30
0.0
 10
-46.519133
 20
549.124787
 30
0.0
 10
-46.657471
 20
549.934768
 30
0.0
 10
-46.716999
 20
550.754311
 30
0.0
 10
-46.697147
 20
551.575785
 30
0.0
 10
-46.598098
 20
552.391502
 30
0.0
 10
-46.420789
 20
553.193851
 30
0.0
 10
-46.166864
 20
553.975339
 30
0.0
 10
-45.838705
 20
554.728678
 30
0.0
 10
-45.439369
 20
555.446820
 30
0.0
 10
-44.972584
 20
556.123072
 30
0.0
 10
-44.442712
 20
556.751120
 30
0.0
 10
-43.854697
 20
557.325091
 30
0.0
 10
-43.214034
 20
557.839631
 30
0.0
 10
-42.526702
 20
558.289939
 30
0.0
 10
-41.799115
 20
558.671806
 30
0.0
 10
-41.038069
 20
558.981665
 30
0.0
 10
-40.250675
 20
559.216630
 30
0.0
 10
-39.444275
 20
559.374504
 30
0.0
 10
-38.626406
 20
559.453809
 30
0.0
 10
-37.804698
 20
559.453809
 30
0.0
 10
-36.986826
 20
559.374504
 30
0.0
 10
-36.180424
 20
559.216630
 30
0.0
 10
-35.393030
 20
558.981665
 30
0.0
 10
-34.631984
 20
558.671806
 30
0.0
 10
-33.904397
 20
558.289939
 30
0.0
 10
-33.217064
 20
557.839631
 30
0.0
 10
-32.576396
 20
557.325091
 30
0.0
 10
-31.988387
 20
556.751120
 30
0.0
 10
-31.458514
 20
556.123072
 30
0.0
 10
-30.991727
 20
555.446820
 30
0.0
 10
-30.592394
 20
554.728678
 30
0.0
 10
-30.264234
 20
553.975339
 30
0.0
  0
LWPOLYLINE
  5
108
100
AcDbEntity
  8
0
 62
7
100
AcDbPolyline
 90
44
 70
1
 10
-52.163401
 20
542.584828
 30
0.0
 10
-52.202663
 20
542.085963
 30
0.0
 10
-52.319482
 20
541.599383
 30
0.0
 10
-52.510979
 20
541.137062
 30
0.0
 10
-52.772442
 20
540.710395
 30
0.0
 10
-53.097431
 20
540.329882
 30
0.0
 10
-53.477945
 20
540.004892
 30
0.0
 10
-53.904614
 20
539.743435
 30
0.0
 10
-54.366927
 20
539.551935
 30
0.0
 10
-54.853513
 20
539.435117
 30
0.0
 10
-55.352378
 20
539.395854
 30
0.0
 10
-61.472409
 20
539.395854
 30
0.0
 10
-61.971275
 20
539.435117
 30
0.0
 10
-62.457860
 20
539.551935
 30
0.0
 10
-62.920172
 20
539.743435
 30
0.0
 10
-63.346843
 20
540.004895
 30
0.0
 10
-63.727358
 20
540.329885
 30
0.0
 10
-64.052342
 20
540.710401
 30
0.0
 10
-64.313806
 20
541.137065
 30
0.0
 10
-64.505305
 20
541.599386
 30
0.0
 10
-64.622121
 20
542.085966
 30
0.0
 10
-64.661384
 20
542.584832
 30
0.0
 10
-64.661384
 20
548.704860
 30
0.0
 10
-64.622121
 20
549.203722
 30
0.0
 10
-64.505305
 20
549.690305
 30
0.0
 10
-64.313806
 20
550.152623
 30
0.0
 10
-64.052342
 20
550.579288
 30
0.0
 10
-63.727358
 20
550.959803
 30
0.0
 10
-63.346843
 20
551.284790
 30
0.0
 10
-62.920172
 20
551.546253
 30
0.0
 10
-62.457860
 20
551.737750
 30
0.0
 10
-61.971275
 20
551.854571
 30
0.0
 10
-61.472409
 20
551.893834
 30
0.0
 10
-55.352378
 20
551.893834
 30
0.0
 10
-54.853513
 20
551.854571
 30
0.0
 10
-54.366927
 20
551.737750
 30
0.0
 10
-53.904614
 20
551.546253
 30
0.0
 10
-53.477945
 20
551.284790
 30
0.0
 10
-53.097431
 20
550.959803
 30
0.0
 10
-52.772442
 20
550.579288
 30
0.0
 10
-52.510979
 20
550.152623
 30
0.0
 10
-52.319482
 20
549.690305
 30
0.0
 10
-52.202663
 20
549.203722
 30
0.0
 10
-52.163401
 20
548.704857
 30
0.0
  0
LWPOLYLINE
  5
109
100
AcDbEntity
  8
0
 62
7
100
AcDbPolyline
 90
44
 70
1
 10
22.422249
 20
595.922794
 30
0.0
 10
22.461512
 20
596.421659
 30
0.0
 10
22.578330
 20
596.908242
 30
0.0
 10
22.769828
 20
597.370559
 30
0.0
 10
23.031290
 20
597.797227
 30
0.0
 10
23.356280
 20
598.177741
 30
0.0
 10
23.736793
 20
598.502730
 30
0.0
 10
24.163461
 20
598.764193
 30
0.0
 10
24.625778
 20
598.955690
 30
0.0
 10
25.112360
 20
599.072508
 30
0.0
 10
25.611226
 20
599.111770
 30
0.0
 10
44.745083
 20
599.111769
 30
0.0
 10
45.243949
 20
599.072507
 30
0.0
 10
45.730531
 20
598.955689
 30
0.0
 10
46.192847
 20
598.764191
 30
0.0
 10
46.619515
 20
598.502728
 30
0.0
 10
47.000030
 20
598.177739
 30
0.0
 10
47.325019
 20
597.797225
 30
0.0
 10
47.586481
 20
597.370557
 30
0.0
 10
47.777980
 20
596.908241
 30
0.0
 10
47.894797
 20
596.421658
 30
0.0
 10
47.934059
 20
595.922792
 30
0.0
 10
47.934059
 20
564.033028
 30
0.0
 10
47.894797
 20
563.534162
 30
0.0
 10
47.777980
 20
563.047582
 30
0.0
 10
47.586481
 20
562.585264
 30
0.0
 10
47.325019
 20
562.158597
 30
0.0
 10
47.000030
 20
561.778087
 30
0.0
 10
46.619512
 20
561.453092
 30
0.0
 10
46.192847
 20
561.191631
 30
0.0
 10
45.730530
 20
561.000131
 30
0.0
 10
45.243949
 20
560.883316
 30
0.0
 10
44.745083
 20
560.844053
 30
0.0
 10
25.611223
 20
560.844053
 30
0.0
 10
25.112358
 20
560.883316
 30
0.0
 10
24.625775
 20
561.000131
 30
0.0
 10
24.163458
 20
561.191631
 30
0.0
 10
23.736790
 20
561.453092
 30
0.0
 10
23.356277
 20
561.778087
 30
0.0
 10
23.031288
 20
562.158597
 30
0.0
 10
22.769824
 20
562.585264
 30
0.0
 10
22.578327
 20
563.047582
 30
0.0
 10
22.461508
 20
563.534162
 30
0.0
 10
22.422246
 20
564.033028
 30
0.0
  0
LWPOLYLINE
  5
10a
100
AcDbEntity
  8
0
 62
7
100
AcDbPolyline
 90
43
 70
1
 10
-64.621502
 20
532.511965
 30
0.0
 10
-64.114185
 20
532.705999
 30
0.0
 10
-63.584026
 20
532.824097
 30
0.0
 10
-63.042320
 20
532.863751
 30
0.0
 10
-62.500614
 20
532.824097
 30
0.0
 10
-61.970455
 20
532.705999
 30
0.0
 10
-61.463138
 20
532.511965
 30
0.0
 10
-60.989479
 20
532.246142
 30
0.0
 10
-60.559576
 20
531.914177
 30
0.0
 10
-60.182585
 20
531.523161
 30
0.0
 10
-59.866545
 20
531.081419
 30
0.0
 10
-59.618197
 20
530.598370
 30
0.0
 10
-59.442821
 20
530.084307
 30
0.0
 10
-59.344168
 20
529.550188
 30
0.0
 10
-59.324330
 20
529.007395
 30
0.0
 10
-59.383730
 20
528.467497
 30
0.0
 10
-59.521116
 20
527.942007
 30
0.0
 10
-59.733548
 20
527.442118
 30
0.0
 10
-60.016497
 20
526.978484
 30
0.0
 10
-60.363939
 20
526.560992
 30
0.0
 10
-60.768465
 20
526.198534
 30
0.0
 10
-61.221451
 20
525.898842
 30
0.0
 10
-61.713249
 20
525.668289
 30
0.0
 10
-62.233378
 20
525.511808
 30
0.0
 10
-62.770746
 20
525.432730
 30
0.0
 10
-63.313889
 20
525.432730
 30
0.0
 10
-63.851257
 20
525.511808
 30
0.0
 10
-64.371386
 20
525.668289
 30
0.0
 10
-64.863184
 20
525.898842
 30
0.0
 10
-65.316170
 20
526.198534
 30
0.0
 10
-65.720696
 20
526.560992
 30
0.0
 10
-66.068138
 20
526.978484
 30
0.0
 10
-66.351093
 20
527.442118
 30
0.0
 10
-66.563519
 20
527.942007
 30
0.0
 10
-66.700905
 20
528.467497
 30
0.0
 10
-66.760311
 20
529.007395
 30
0.0
 10
-66.740473
 20
529.550188
 30
0.0
 10
-66.641813
 20
530.084307
 30
0.0
 10
-66.466438
 20
530.598370
 30
0.0
 10
-66.218090
 20
531.081419
 30
0.0
 10
-65.902050
 20
531.523161
 30
0.0
 10
-65.525059
 20
531.914177
 30
0.0
 10
-65.095156
 20
532.246142
 30
0.0
  0
LWPOLYLINE
  5
10b
100
AcDbEntity
  8
0
 62
7
100
AcDbPolyline
 90
43
 70
1
 10
60.818579
 20
529.550183
 30
0.0
 10
60.917238
 20
530.084295
 30
0.0
 10
61.092613
 20
530.598364
 30
0.0
 10
61.340962
 20
531.081413
 30
0.0
 10
61.657001
 20
531.523155
 30
0.0
 10
62.033987
 20
531.914171
 30
0.0
 10
62.463896
 20
532.246130
 30
0.0
 10
62.937550
 20
532.511959
 30
0.0
 10
63.444866
 20
532.705988
 30
0.0
 10
63.975026
 20
532.824091
 30
0.0
 10
64.516731
 20
532.863739
 30
0.0
 10
65.058437
 20
532.824091
 30
0.0
 10
65.588597
 20
532.705988
 30
0.0
 10
66.095913
 20
532.511959
 30
0.0
 10
66.569567
 20
532.246130
 30
0.0
 10
66.999476
 20
531.914171
 30
0.0
 10
67.376461
 20
531.523155
 30
0.0
 10
67.692501
 20
531.081413
 30
0.0
 10
67.940849
 20
530.598364
 30
0.0
 10
68.116230
 20
530.084295
 30
0.0
 10
68.214889
 20
529.550183
 30
0.0
 10
68.234723
 20
529.007384
 30
0.0
 10
68.175316
 20
528.467492
 30
0.0
 10
68.037935
 20
527.942001
 30
0.0
 10
67.825504
 20
527.442112
 30
0.0
 10
67.542555
 20
526.978478
 30
0.0
 10
67.195112
 20
526.560986
 30
0.0
 10
66.790586
 20
526.198522
 30
0.0
 10
66.337601
 20
525.898831
 30
0.0
 10
65.845802
 20
525.668284
 30
0.0
 10
65.325674
 20
525.511797
 30
0.0
 10
64.788305
 20
525.432718
 30
0.0
 10
64.245158
 20
525.432718
 30
0.0
 10
63.707789
 20
525.511797
 30
0.0
 10
63.187660
 20
525.668284
 30
0.0
 10
62.695861
 20
525.898831
 30
0.0
 10
62.242876
 20
526.198522
 30
0.0
 10
61.838350
 20
526.560986
 30
0.0
 10
61.490908
 20
526.978478
 30
0.0
 10
61.207958
 20
527.442112
 30
0.0
 10
60.995528
 20
527.942001
 30
0.0
 10
60.858147
 20
528.467492
 30
0.0
 10
60.798740
 20
529.007384
 30
0.0
  0
LWPOLYLINE
  5
10c
100
AcDbEntity
  8
0
 62
7
100
AcDbPolyline
 90
84
 70
1
 10
14.318044
 20
572.343905
 30
0.0
 10
13.831461
 20
572.499179
 30
0.0
 10
13.369142
 20
572.753717
 30
0.0
 10
12.942473
 20
573.101252
 30
0.0
 10
12.561959
 20
573.533227
 30
0.0
 10
0.321908
 20
573.533227
 30
0.0
 10
-0.058608
 20
573.101253
 30
0.0
 10
-0.485279
 20
572.753719
 30
0.0
 10
-0.947593
 20
572.499181
 30
0.0
 10
-1.434173
 20
572.343906
 30
0.0
 10
-1.933039
 20
572.291721
 30
0.0
 10
-2.431904
 20
572.343906
 30
0.0
 10
-2.918489
 20
572.499180
 30
0.0
 10
-3.380805
 20
572.753719
 30
0.0
 10
-3.807472
 20
573.101253
 30
0.0
 10
-4.187991
 20
573.533227
 30
0.0
 10
-4.512980
 20
574.039005
 30
0.0
 10
-4.774441
 20
574.606130
 30
0.0
 10
-4.965941
 20
575.220640
 30
0.0
 10
-5.082756
 20
575.867403
 30
0.0
 10
-5.122019
 20
576.530495
 30
0.0
 10
-5.082756
 20
577.193585
 30
0.0
 10
-4.965941
 20
577.840347
 30
0.0
 10
-4.774441
 20
578.454858
 30
0.0
 10
-4.512980
 20
579.021984
 30
0.0
 10
-4.187991
 20
579.527761
 30
0.0
 10
-4.187986
 20
629.707396
 30
0.0
 10
-4.512975
 20
630.213172
 30
0.0
 10
-4.774438
 20
630.780297
 30
0.0
 10
-4.965935
 20
631.394812
 30
0.0
 10
-5.082756
 20
632.041576
 30
0.0
 10
-5.122011
 20
632.704658
 30
0.0
 10
-5.082749
 20
633.367747
 30
0.0
 10
-4.965930
 20
634.014515
 30
0.0
 10
-4.774433
 20
634.629020
 30
0.0
 10
-4.512971
 20
635.196148
 30
0.0
 10
-4.187981
 20
635.701928
 30
0.0
 10
-3.807468
 20
636.133909
 30
0.0
 10
-3.380798
 20
636.481438
 30
0.0
 10
-2.918485
 20
636.735972
 30
0.0
 10
-2.431899
 20
636.891250
 30
0.0
 10
-1.933034
 20
636.943435
 30
0.0
 10
-1.434169
 20
636.891250
 30
0.0
 10
-0.947586
 20
636.735972
 30
0.0
 10
-0.485268
 20
636.481438
 30
0.0
 10
-0.058604
 20
636.133903
 30
0.0
 10
0.321913
 20
635.701928
 30
0.0
 10
12.561970
 20
635.701928
 30
0.0
 10
12.942483
 20
636.133903
 30
0.0
 10
13.369153
 20
636.481438
 30
0.0
 10
13.831468
 20
636.735972
 30
0.0
 10
14.318054
 20
636.891250
 30
0.0
 10
14.816919
 20
636.943435
 30
0.0
 10
15.315784
 20
636.891250
 30
0.0
 10
15.802361
 20
636.735972
 30
0.0
 10
16.264680
 20
636.481438
 30
0.0
 10
16.691350
 20
636.133903
 30
0.0
 10
17.071860
 20
635.701928
 30
0.0
 10
17.396849
 20
635.196148
 30
0.0
 10
17.658318
 20
634.629020
 30
0.0
 10
17.849812
 20
634.014515
 30
0.0
 10
17.966633
 20
633.367747
 30
0.0
 10
18.005896
 20
632.704658
 30
0.0
 10
17.966633
 20
632.041576
 30
0.0
 10
17.849812
 20
631.394812
 30
0.0
 10
17.658318
 20
630.780297
 30
0.0
 10
17.396849
 20
630.213169
 30
0.0
 10
17.071854
 20
629.707396
 30
0.0
 10
17.071854
 20
579.527761
 30
0.0
 10
17.396844
 20
579.021984
 30
0.0
 10
17.658313
 20
578.454857
 30
0.0
 10
17.849812
 20
577.840347
 30
0.0
 10
17.966628
 20
577.193583
 30
0.0
 10
18.005890
 20
576.530493
 30
0.0
 10
17.966628
 20
575.867403
 30
0.0
 10
17.849812
 20
575.220640
 30
0.0
 10
17.658313
 20
574.606130
 30
0.0
 10
17.396844
 20
574.039004
 30
0.0
 10
17.071854
 20
573.533227
 30
0.0
 10
16.691344
 20
573.101252
 30
0.0
 10
16.264677
 20
572.753717
 30
0.0
 10
15.802355
 20
572.499179
 30
0.0
 10
15.315779
 20
572.343905
 30
0.0
 10
14.816913
 20
572.291720
 30
0.0
  0
LWPOLYLINE
  5
10d
100
AcDbEntity
  8
0
 62
7
100
AcDbPolyline
 90
40
 70
1
 10
25.011664
 20
618.473863
 30
0.0
 10
24.512798
 20
618.434608
 30
0.0
 10
24.013934
 20
618.473863
 30
0.0
 10
23.527353
 20
618.590681
 30
0.0
 10
23.065029
 20
618.782181
 30
0.0
 10
22.638365
 20
619.043641
 30
0.0
 10
22.257854
 20
619.368633
 30
0.0
 10
21.932865
 20
619.749146
 30
0.0
 10
21.671402
 20
620.175814
 30
0.0
 10
21.479903
 20
620.638129
 30
0.0
 10
21.363081
 20
621.124714
 30
0.0
 10
21.323819
 20
621.623580
 30
0.0
 10
21.363081
 20
622.122445
 30
0.0
 10
21.479903
 20
622.609028
 30
0.0
 10
21.671402
 20
623.071340
 30
0.0
 10
21.932865
 20
623.498011
 30
0.0
 10
22.257854
 20
623.878527
 30
0.0
 10
22.638365
 20
624.203513
 30
0.0
 10
23.065029
 20
624.464976
 30
0.0
 10
23.527353
 20
624.656476
 30
0.0
 10
24.013934
 20
624.773291
 30
0.0
 10
24.512798
 20
624.812554
 30
0.0
 10
25.011664
 20
624.773291
 30
0.0
 10
25.498249
 20
624.656476
 30
0.0
 10
25.960562
 20
624.464976
 30
0.0
 10
26.387232
 20
624.203513
 30
0.0
 10
26.767742
 20
623.878527
 30
0.0
 10
27.092738
 20
623.498011
 30
0.0
 10
27.354200
 20
623.071340
 30
0.0
 10
27.545694
 20
622.609028
 30
0.0
 10
27.662516
 20
622.122445
 30
0.0
 10
27.701778
 20
621.623580
 30
0.0
 10
27.662516
 20
621.124714
 30
0.0
 10
27.545694
 20
620.638129
 30
0.0
 10
27.354200
 20
620.175814
 30
0.0
 10
27.092738
 20
619.749146
 30
0.0
 10
26.767742
 20
619.368633
 30
0.0
 10
26.387232
 20
619.043641
 30
0.0
 10
25.960562
 20
618.782181
 30
0.0
 10
25.498249
 20
618.590681
 30
0.0
  0
LWPOLYLINE
  5
10e
100
AcDbEntity
  8
0
 62
7
100
AcDbPolyline
 90
43
 70
1
 10
68.214895
 20
657.109228
 30
0.0
 10
68.234734
 20
656.566441
 30
0.0
 10
68.175327
 20
656.026537
 30
0.0
 10
68.037941
 20
655.501047
 30
0.0
 10
67.825516
 20
655.001158
 30
0.0
 10
67.542560
 20
654.537524
 30
0.0
 10
67.195118
 20
654.120031
 30
0.0
 10
66.790592
 20
653.757580
 30
0.0
 10
66.337606
 20
653.457882
 30
0.0
 10
65.845808
 20
653.227335
 30
0.0
 10
65.325679
 20
653.070854
 30
0.0
 10
64.788311
 20
652.991770
 30
0.0
 10
64.245169
 20
652.991770
 30
0.0
 10
63.707800
 20
653.070854
 30
0.0
 10
63.187672
 20
653.227335
 30
0.0
 10
62.695874
 20
653.457882
 30
0.0
 10
62.242888
 20
653.757580
 30
0.0
 10
61.838362
 20
654.120031
 30
0.0
 10
61.490919
 20
654.537524
 30
0.0
 10
61.207969
 20
655.001158
 30
0.0
 10
60.995539
 20
655.501047
 30
0.0
 10
60.858152
 20
656.026537
 30
0.0
 10
60.798746
 20
656.566441
 30
0.0
 10
60.818590
 20
657.109228
 30
0.0
 10
60.917244
 20
657.643347
 30
0.0
 10
61.092619
 20
658.157410
 30
0.0
 10
61.340967
 20
658.640459
 30
0.0
 10
61.657007
 20
659.082207
 30
0.0
 10
62.033998
 20
659.473223
 30
0.0
 10
62.463901
 20
659.805182
 30
0.0
 10
62.937561
 20
660.071011
 30
0.0
 10
63.444878
 20
660.265046
 30
0.0
 10
63.975037
 20
660.383137
 30
0.0
 10
64.516743
 20
660.422791
 30
0.0
 10
65.058448
 20
660.383137
 30
0.0
 10
65.588608
 20
660.265046
 30
0.0
 10
66.095924
 20
660.071011
 30
0.0
 10
66.569579
 20
659.805182
 30
0.0
 10
66.999482
 20
659.473223
 30
0.0
 10
67.376473
 20
659.082207
 30
0.0
 10
67.692512
 20
658.640459
 30
0.0
 10
67.940860
 20
658.157410
 30
0.0
 10
68.116236
 20
657.643347
 30
0.0
  0
LWPOLYLINE
  5
10f
100
AcDbEntity
  8
0
 62
7
100
AcDbPolyline
 90
40
 70
1
 10
-13.076698
 20
624.464976
 30
0.0
 10
-12.614382
 20
624.656476
 30
0.0
 10
-12.127796
 20
624.773291
 30
0.0
 10
-11.628931
 20
624.812554
 30
0.0
 10
-11.130066
 20
624.773291
 30
0.0
 10
-10.643486
 20
624.656476
 30
0.0
 10
-10.181164
 20
624.464976
 30
0.0
 10
-9.754499
 20
624.203513
 30
0.0
 10
-9.373986
 20
623.878527
 30
0.0
 10
-9.048997
 20
623.498011
 30
0.0
 10
-8.787535
 20
623.071340
 30
0.0
 10
-8.596036
 20
622.609028
 30
0.0
 10
-8.479215
 20
622.122445
 30
0.0
 10
-8.439952
 20
621.623580
 30
0.0
 10
-8.479215
 20
621.124714
 30
0.0
 10
-8.596036
 20
620.638129
 30
0.0
 10
-8.787535
 20
620.175814
 30
0.0
 10
-9.048997
 20
619.749146
 30
0.0
 10
-9.373986
 20
619.368633
 30
0.0
 10
-9.754499
 20
619.043641
 30
0.0
 10
-10.181164
 20
618.782181
 30
0.0
 10
-10.643486
 20
618.590681
 30
0.0
 10
-11.130066
 20
618.473863
 30
0.0
 10
-11.628931
 20
618.434608
 30
0.0
 10
-12.127796
 20
618.473863
 30
0.0
 10
-12.614382
 20
618.590681
 30
0.0
 10
-13.076698
 20
618.782181
 30
0.0
 10
-13.503367
 20
619.043641
 30
0.0
 10
-13.883879
 20
619.368633
 30
0.0
 10
-14.208868
 20
619.749146
 30
0.0
 10
-14.470332
 20
620.175814
 30
0.0
 10
-14.661830
 20
620.638129
 30
0.0
 10
-14.778647
 20
621.124714
 30
0.0
 10
-14.817910
 20
621.623580
 30
0.0
 10
-14.778647
 20
622.122445
 30
0.0
 10
-14.661830
 20
622.609028
 30
0.0
 10
-14.470332
 20
623.071340
 30
0.0
 10
-14.208869
 20
623.498011
 30
0.0
 10
-13.883879
 20
623.878527
 30
0.0
 10
-13.503367
 20
624.203513
 30
0.0
  0
LWPOLYLINE
  5
110
100
AcDbEntity
  8
0
 62
7
100
AcDbPolyline
 90
44
 70
1
 10
-13.895688
 20
628.687188
 30
0.0
 10
-13.934951
 20
628.188317
 30
0.0
 10
-14.051768
 20
627.701738
 30
0.0
 10
-14.243267
 20
627.239422
 30
0.0
 10
-14.504730
 20
626.812752
 30
0.0
 10
-14.829720
 20
626.432236
 30
0.0
 10
-15.210233
 20
626.107246
 30
0.0
 10
-15.636902
 20
625.845786
 30
0.0
 10
-16.099219
 20
625.654286
 30
0.0
 10
-16.585800
 20
625.537471
 30
0.0
 10
-17.084666
 20
625.498208
 30
0.0
 10
-23.204691
 20
625.498208
 30
0.0
 10
-23.703559
 20
625.537471
 30
0.0
 10
-24.190142
 20
625.654286
 30
0.0
 10
-24.652459
 20
625.845786
 30
0.0
 10
-25.079124
 20
626.107246
 30
0.0
 10
-25.459639
 20
626.432236
 30
0.0
 10
-25.784628
 20
626.812752
 30
0.0
 10
-26.046090
 20
627.239422
 30
0.0
 10
-26.237588
 20
627.701738
 30
0.0
 10
-26.354408
 20
628.188317
 30
0.0
 10
-26.393671
 20
628.687188
 30
0.0
 10
-26.393671
 20
634.807211
 30
0.0
 10
-26.354408
 20
635.306076
 30
0.0
 10
-26.237588
 20
635.792662
 30
0.0
 10
-26.046090
 20
636.254980
 30
0.0
 10
-25.784628
 20
636.681644
 30
0.0
 10
-25.459639
 20
637.062161
 30
0.0
 10
-25.079124
 20
637.387150
 30
0.0
 10
-24.652459
 20
637.648613
 30
0.0
 10
-24.190142
 20
637.840107
 30
0.0
 10
-23.703559
 20
637.956929
 30
0.0
 10
-23.204691
 20
637.996184
 30
0.0
 10
-17.084666
 20
637.996184
 30
0.0
 10
-16.585800
 20
637.956929
 30
0.0
 10
-16.099219
 20
637.840107
 30
0.0
 10
-15.636902
 20
637.648613
 30
0.0
 10
-15.210233
 20
637.387150
 30
0.0
 10
-14.829720
 20
637.062161
 30
0.0
 10
-14.504730
 20
636.681644
 30
0.0
 10
-14.243267
 20
636.254980
 30
0.0
 10
-14.051768
 20
635.792662
 30
0.0
 10
-13.934951
 20
635.306076
 30
0.0
 10
-13.895688
 20
634.807211
 30
0.0
  0
LWPOLYLINE
  5
111
100
AcDbEntity
  8
0
 62
7
100
AcDbPolyline
 90
43
 70
1
 10
-59.618191
 20
658.157421
 30
0.0
 10
-59.442816
 20
657.643352
 30
0.0
 10
-59.344156
 20
657.109240
 30
0.0
 10
-59.324318
 20
656.566446
 30
0.0
 10
-59.383724
 20
656.026549
 30
0.0
 10
-59.521105
 20
655.501058
 30
0.0
 10
-59.733535
 20
655.001169
 30
0.0
 10
-60.016485
 20
654.537535
 30
0.0
 10
-60.363928
 20
654.120043
 30
0.0
 10
-60.768454
 20
653.757586
 30
0.0
 10
-61.221440
 20
653.457888
 30
0.0
 10
-61.713238
 20
653.227341
 30
0.0
 10
-62.233366
 20
653.070860
 30
0.0
 10
-62.770735
 20
652.991776
 30
0.0
 10
-63.313882
 20
652.991776
 30
0.0
 10
-63.851252
 20
653.070860
 30
0.0
 10
-64.371380
 20
653.227341
 30
0.0
 10
-64.863179
 20
653.457888
 30
0.0
 10
-65.316164
 20
653.757586
 30
0.0
 10
-65.720689
 20
654.120043
 30
0.0
 10
-66.068132
 20
654.537535
 30
0.0
 10
-66.351082
 20
655.001169
 30
0.0
 10
-66.563513
 20
655.501058
 30
0.0
 10
-66.700894
 20
656.026549
 30
0.0
 10
-66.760300
 20
656.566446
 30
0.0
 10
-66.740467
 20
657.109240
 30
0.0
 10
-66.641807
 20
657.643352
 30
0.0
 10
-66.466427
 20
658.157421
 30
0.0
 10
-66.218078
 20
658.640470
 30
0.0
 10
-65.902039
 20
659.082212
 30
0.0
 10
-65.525053
 20
659.473229
 30
0.0
 10
-65.095145
 20
659.805193
 30
0.0
 10
-64.621490
 20
660.071016
 30
0.0
 10
-64.114174
 20
660.265051
 30
0.0
 10
-63.584015
 20
660.383148
 30
0.0
 10
-63.042309
 20
660.422796
 30
0.0
 10
-62.500603
 20
660.383148
 30
0.0
 10
-61.970444
 20
660.265051
 30
0.0
 10
-61.463127
 20
660.071016
 30
0.0
 10
-60.989474
 20
659.805193
 30
0.0
 10
-60.559565
 20
659.473229
 30
0.0
 10
-60.182579
 20
659.082212
 30
0.0
 10
-59.866539
 20
658.640470
 30
0.0
  0
ENDSEC
  0
SECTION
  2
OBJECTS
  0
DICTIONARY
  5
C
330
0
100
AcDbDictionary
  3
ACAD_GROUP
350
D
  3
ACAD_MLINESTYLE
350
17
  0
DICTIONARY
  5
D
330
C
100
AcDbDictionary
  0
DICTIONARY
  5
1A
330
C
100
AcDbDictionary
  0
DICTIONARY
  5
17
330
C
100
AcDbDictionary
  3
STANDARD
350
18
  0
DICTIONARY
  5
19
330
C
100
AcDbDictionary
  0
ENDSEC
  0
EOF
