<svg  version="1.0"  id="Layer_1" xmlns="http://www.w3.org/2000/svg"   xmlns:xlink="http://www.w3.org/1999/xlink" x="0px" y="0px"  viewBox="-235.1 -325.1 612 792" style="enable-background:new -235.1 -325.1 612 792;" xml:space="preserve">
<path transform="translate(0.0,0.0)" style="fill:#e5cd89;stroke-width:1;stroke:#000000;stroke-opacity:1" d="M -80.366699,-6.2255101 -79.532051,-5.7642174 -78.754295,-5.2123737 -78.043228,-4.5769191 -77.407768,-3.8658454 -76.855934,-3.0880954 -76.394638,-2.253448 -76.029694,-1.3724003 -75.765694,-0.45603183 -75.605957,0.48413327 -75.552483,1.4362721 -75.605957,2.388411 -75.765694,3.3285756 -76.029694,4.2449441 -76.394638,5.1259918 -76.855934,5.960638 -77.407768,6.738389 -78.043228,7.4494629 -78.754295,8.084918 -79.532051,8.6367617 -80.366699,9.0980539 -81.247749,9.4629955 -82.164116,9.7269964 -83.104279,9.8867369 -84.056419,9.9402084 -86.89106,9.9402084 -87.556221,9.9925566 -88.204994,10.148314 -88.821419,10.403645 -89.390312,10.752261 -89.897659,11.185579 -90.330978,11.692931 -90.679596,12.261822 -90.934929,12.878244 -91.090683,13.527021 -91.143036,14.192177 -91.143044,77.804855 -91.17923,78.358467 -91.287201,78.902649 -91.465088,79.428139 -91.709892,79.925995 -92.017433,80.387741 -92.599792,81.236244 -93.092056,82.140007 -93.489044,83.089485 -93.786552,84.074661 -93.981476,85.085159 -94.071739,86.110321 -94.056396,87.139336 -93.935616,88.161346 -93.710663,89.165588 -93.383904,90.141464 -92.958794,91.078682 -92.439804,91.967369 -91.83242,92.798141 -91.143044,93.562256 -90.378937,94.251633 -89.548157,94.859024 -88.659477,95.377998 -87.722252,95.803123 -86.746384,96.129875 -85.742134,96.354836 -84.720131,96.475616 -83.691116,96.490959 -82.665947,96.400696 -81.655449,96.205772 -80.670273,95.908249 -79.720802,95.511269 -78.817032,95.018997 -77.968529,94.436646 -77.506783,94.129112 -77.008926,93.884308 -76.483437,93.706413 -75.939255,93.59845 -75.385651,93.562256 -11.772964,93.562263 -11.107809,93.509903 -10.459034,93.354149 -9.8426113,93.098816 -9.2737198,92.750198 -8.7663689,92.316887 -8.3330488,91.809532 -7.9844317,91.240639 -7.7291012,90.624214 -7.5733433,89.975441 -7.5209951,89.31028 -7.5209951,86.475639 -7.4675236,85.523499 -7.3077831,84.583336 -7.0437822,83.666969 -6.6788402,82.785919 -6.2175474,81.951271 -5.6657038,81.173523 -5.0302491,80.462448 -4.3191762,79.826988 -3.541425,79.275154 -2.7067776,78.813858 -1.8257298,78.448921 -0.90936154,78.184914 0.030803623,78.025177 0.98294222,77.971703 1.935081,78.025177 2.875246,78.184914 3.7916143,78.448921 4.6726618,78.813858 5.5073094,79.275154 6.2850595,79.826988 6.9961329,80.462448 7.6315875,81.173523 8.1834307,81.951271 8.6447239,82.785919 9.0096655,83.666969 9.2736673,84.583336 9.4334068,85.523499 9.4868784,86.475639 9.4868784,89.31028 9.5392265,89.975441 9.6949844,90.624214 9.9503155,91.240639 10.298932,91.809532 10.732251,92.316887 11.239601,92.750198 11.808494,93.098816 12.424916,93.354149 13.073691,93.509903 13.738846,93.562263 77.351532,93.562263 77.905144,93.598457 78.449326,93.706429 78.974815,93.884315 79.472672,94.12912 79.93441,94.436653 80.782921,95.019012 81.686684,95.511276 82.636162,95.908264 83.621338,96.20578 84.631836,96.400703 85.656998,96.490967 86.686012,96.475624 87.708023,96.354843 88.712265,96.129883 89.688141,95.803131 90.625359,95.378014 91.514046,94.859032 92.344818,94.251648 93.108925,93.562263 93.798309,92.798157 94.405693,91.967377 94.924675,91.078697 95.349792,90.141472 95.676544,89.165604 95.901505,88.161354 96.022285,87.139351 96.037628,86.110336 95.947365,85.085175 95.752441,84.074669 95.454926,83.089493 95.057938,82.140022 94.565674,81.236259 93.983322,80.387749 93.675781,79.926003 93.430977,79.428146 93.25309,78.902664 93.145119,78.358475 93.108925,77.804871 93.108932,14.192185 93.05658,13.52703 92.900826,12.878253 92.645493,12.26183 92.296875,11.69294 91.863556,11.185588 91.356209,10.752269 90.787315,10.403653 90.170891,10.148322 89.522118,9.9925642 88.856956,9.9402161 86.022316,9.9402161 85.070175,9.8867445 84.130013,9.7270041 83.213638,9.4630032 82.332596,9.0980606 81.497948,8.6367683 80.720192,8.0849247 80.009125,7.44947 79.373665,6.7383962 78.821831,5.9606452 78.360535,5.125998 77.99559,4.2449508 77.73159,3.3285823 77.571854,2.3884177 77.518379,1.4362788 77.571854,0.48413998 77.73159,-0.45602509 77.99559,-1.3723935 78.360535,-2.2534409 78.821831,-3.0880883 79.373665,-3.8658383 80.009125,-4.5769124 80.720192,-5.2123666 81.497948,-5.7642102 82.332596,-6.225503 83.213638,-6.590445 84.130013,-6.8544464 85.070175,-7.0141864 86.022316,-7.0676579 88.856956,-7.0676579 89.522118,-7.1200061 90.170891,-7.275764 90.787315,-7.5310941 91.356209,-7.8797107 91.863556,-8.3130302 92.296875,-8.8203812 92.645493,-9.3892727 92.900826,-10.005695 93.05658,-10.65447 93.108932,-11.319625 93.10894,-74.932312 93.145126,-75.485916 93.253098,-76.030106 93.430984,-76.555595 93.675789,-77.053452 93.98333,-77.51519 94.565681,-78.363701 95.057953,-79.267464 95.454933,-80.216942 95.752449,-81.20211 95.947372,-82.212616 96.037643,-83.237778 96.022301,-84.266792 95.90152,-85.288803 95.676552,-86.293045 95.3498,-87.268921 94.92469,-88.206139 94.405701,-89.094818 93.798317,-89.925598 93.10894,-90.689705 92.344833,-91.379082 91.514053,-91.986473 90.625374,-92.505447 89.688148,-92.930573 88.71228,-93.257324 87.708031,-93.482285 86.686028,-93.603065 85.657013,-93.618408 84.631844,-93.528145 83.621346,-93.333221 82.636169,-93.035706 81.686699,-92.638718 80.782928,-92.146454 79.934425,-91.564102 79.472679,-91.256561 78.974823,-91.011757 78.449333,-90.83387 77.905151,-90.725899 77.351547,-90.689705 13.738854,-90.689713 13.0737,-90.63736 12.424925,-90.481606 11.808502,-90.226273 11.23961,-89.877655 10.73226,-89.444336 10.29894,-88.936989 9.9503231,-88.368095 9.694993,-87.751671 9.5392351,-87.102898 9.486886,-86.437737 9.486886,-83.603096 9.4334145,-82.650955 9.273674,-81.710793 9.0096731,-80.794418 8.6447306,-79.913376 8.1834383,-79.078728 7.6315942,-78.300972 6.99614,-77.589897 6.2850666,-76.954445 5.5073161,-76.402611 4.6726685,-75.941315 3.7916212,-75.57637 2.8752527,-75.31237 1.9350878,-75.152626 0.9829489,-75.099159 0.030810261,-75.152626 -0.90935481,-75.31237 -1.8257231,-75.57637 -2.7067709,-75.941315 -3.5414183,-76.402611 -4.319169,-76.954445 -5.030242,-77.589897 -5.6656966,-78.300972 -6.2175403,-79.078728 -6.678833,-79.913376 -7.0437751,-80.794418 -7.307776,-81.710793 -7.4675164,-82.650955 -7.520988,-83.603096 -7.520987,-86.437737 -7.5733352,-87.102898 -7.7290931,-87.751671 -7.9844236,-88.368095 -8.3330412,-88.936989 -8.7663603,-89.444336 -9.2737112,-89.877655 -9.8426027,-90.226273 -10.459025,-90.481606 -11.1078,-90.63736 -11.772955,-90.689713 -75.385635,-90.68972 -75.939247,-90.725906 -76.483429,-90.833878 -77.008919,-91.011765 -77.506775,-91.256569 -77.968513,-91.56411 -78.817024,-92.146461 -79.720787,-92.638718 -80.670265,-93.035706 -81.655441,-93.333221 -82.665939,-93.528145 -83.691101,-93.618408 -84.720116,-93.603065 -85.742126,-93.482285 -86.746368,-93.257324 -87.722244,-92.930573 -88.659462,-92.505447 -89.548149,-91.986481 -90.378922,-91.379097 -91.143028,-90.68972 -91.832413,-89.925613 -92.439796,-89.094833 -92.958778,-88.206154 -93.383896,-87.268929 -93.710655,-86.29306 -93.935616,-85.288811 -94.056396,-84.266808 -94.071739,-83.237793 -93.981476,-82.212624 -93.786552,-81.202126 -93.489029,-80.216949 -93.092041,-79.267479 -92.599777,-78.363708 -92.017426,-77.515205 -91.709885,-77.053459 -91.46508,-76.555603 -91.287193,-76.030113 -91.179222,-75.485931 -91.143028,-74.932327 -91.143036,-11.319633 -91.090683,-10.654479 -90.934929,-10.005704 -90.679596,-9.3892813 -90.330978,-8.8203897 -89.897659,-8.3130388 -89.390312,-7.8797193 -88.821419,-7.5311022 -88.204994,-7.2757721 -87.556221,-7.1200132 -86.89106,-7.0676651 -84.056419,-7.0676651 -83.104279,-7.0141935 -82.164116,-6.8544536 -81.247749,-6.5904522  Z" id="polygon0" />
<path transform="translate(0.0,0.0)" style="fill:#e5cd89;stroke-width:1;stroke:#000000;stroke-opacity:1" d="M -66.481613,-40.770546 -67.11821,-40.821941 -67.738319,-40.974777 -68.325874,-41.225117 -68.865662,-41.56646 -69.343712,-41.989971 -69.747627,-42.48468 -70.066963,-43.037785 -70.293434,-43.634945 -70.421188,-44.260696 -70.446899,-44.898849 -70.369919,-45.532852 -70.19223,-46.146305 -69.918442,-46.723305 -69.555634,-47.248913 -69.11322,-47.709522 -68.602646,-48.093193 -68.03714,-48.389992 -67.431343,-48.592239 -66.800941,-48.694695 -66.162285,-48.694695 -65.531891,-48.592239 -64.926094,-48.389992 -64.36058,-48.093193 -63.85001,-47.709522 -63.407589,-47.248909 -63.044788,-46.723301 -62.770996,-46.146301 -62.593311,-45.532845 -62.516323,-44.898842 -62.542046,-44.260696 -62.669796,-43.634945 -62.896267,-43.037785 -63.215603,-42.48468 -63.619514,-41.989971 -64.097572,-41.56646 -64.63736,-41.225117 -65.224915,-40.974777 -65.845024,-40.821941  Z" id="polygon1" />
<path transform="translate(0.0,0.0)" style="fill:#e5cd89;stroke-width:1;stroke:#000000;stroke-opacity:1" d="M -21.624557,43.621101 -22.261148,43.672497 -22.897741,43.621101 -23.517847,43.468266 -24.105408,43.217926 -24.645195,42.876583 -25.123245,42.453072 -25.527164,41.958363 -25.846495,41.405258 -26.072969,40.808098 -26.20072,40.182346 -26.226437,39.544193 -26.14945,38.910191 -25.971762,38.296741 -25.697973,37.719742 -25.335171,37.19413 -24.892752,36.733524 -24.382175,36.349854 -23.816671,36.053051 -23.210873,35.850803 -22.580482,35.748356 -21.941818,35.748356 -21.311426,35.850803 -20.705627,36.053051 -20.14012,36.349854 -19.629545,36.733524 -19.187126,37.19413 -18.824324,37.719742 -18.550535,38.296741 -18.372847,38.910191 -18.295864,39.544193 -18.321579,40.182346 -18.449329,40.808098 -18.675802,41.405258 -18.995136,41.958363 -19.399054,42.453072 -19.8771,42.876583 -20.416893,43.217926 -21.004452,43.468266  Z" id="polygon2" />
<path transform="translate(0.0,0.0)" style="fill:#e5cd89;stroke-width:1;stroke:#000000;stroke-opacity:1" d="M -76.462456,-52.809669 -76.96981,-53.242989 -77.403122,-53.75034 -77.75174,-54.319233 -78.007072,-54.935658 -78.162827,-55.584431 -78.215179,-56.249588 -78.215172,-64.409622 -78.162819,-65.074776 -78.007065,-65.723557 -77.75174,-66.339973 -77.403122,-66.908867 -76.969803,-67.416222 -76.462448,-67.849541 -75.893555,-68.198158 -75.277138,-68.453484 -74.628357,-68.609245 -73.963203,-68.661591 -65.803162,-68.661591 -65.138008,-68.609245 -64.489227,-68.453484 -63.872814,-68.198158 -63.303921,-67.849533 -62.796566,-67.416214 -62.363247,-66.908859 -62.014633,-66.339973 -61.7593,-65.723549 -61.603546,-65.074768 -61.551193,-64.409615 -61.551201,-56.249584 -61.60355,-55.584423 -61.759308,-54.93565 -62.014637,-54.319229 -62.363255,-53.750336 -62.796574,-53.242981 -63.303925,-52.809662 -63.872818,-52.461052 -64.489235,-52.205723 -65.138016,-52.049965 -65.803169,-51.997616 -73.963211,-51.997616 -74.628365,-52.049965 -75.277145,-52.205723 -75.893562,-52.461052  Z" id="polygon3" />
<path transform="translate(0.0,0.0)" style="fill:#e5cd89;stroke-width:1;stroke:#000000;stroke-opacity:1" d="M -53.73769,-49.73917 -54.025513,-50.796295 -54.209965,-51.876266 -54.28933,-52.969002 -54.262856,-54.064289 -54.130791,-55.151917 -53.894379,-56.221714 -53.555813,-57.263702 -53.118267,-58.268154 -52.585819,-59.225674 -51.96344,-60.127346 -51.256943,-60.964737 -50.472923,-61.730034 -49.618702,-62.416088 -48.702255,-63.016499 -47.73214,-63.525654 -46.717415,-63.938808 -45.667553,-64.252083 -44.592358,-64.462585 -43.501862,-64.568329 -42.40625,-64.568329 -41.315758,-64.462585 -40.240555,-64.252083 -39.190693,-63.938808 -38.175968,-63.525654 -37.205853,-63.016499 -36.289406,-62.416088 -35.435184,-61.730034 -34.651169,-60.964737 -33.944675,-60.127346 -33.322292,-59.225674 -32.789845,-58.268154 -32.352299,-57.263702 -32.013733,-56.221714 -31.777323,-55.151917 -31.64526,-54.064289 -31.618784,-52.969002 -31.698143,-51.876266 -31.882597,-50.796295 -32.170425,-49.73917 -32.558933,-48.714756 -33.044495,-47.732616 -33.622585,-46.801933 -34.2878,-45.931381 -35.033928,-45.129108 -35.854004,-44.402584 -36.740368,-43.758602 -37.684757,-43.203171 -38.678337,-42.741478 -39.711838,-42.377838 -40.775612,-42.115639 -41.859726,-41.95734 -42.954056,-41.904408 -44.048386,-41.95734 -45.132504,-42.115639 -46.196278,-42.377838 -47.229774,-42.741478 -48.223358,-43.203171 -49.167744,-43.758602 -50.054111,-44.402584 -50.874187,-45.129108 -51.620316,-45.931381 -52.285522,-46.801933 -52.863617,-47.732616 -53.349178,-48.714756  Z" id="polygon4" />
<path transform="translate(0.0,0.0)" style="fill:#e5cd89;stroke-width:1;stroke:#000000;stroke-opacity:1" d="M -61.654598,6.6646271 -61.03817,6.9199576 -60.46928,7.2685738 -59.961933,7.7018938 -59.528614,8.2092447 -59.179993,8.7781353 -58.92466,9.394558 -58.768906,10.043335 -58.716553,10.70849 -58.716553,33.041752 -58.768906,33.706905 -58.92466,34.355682 -59.179993,34.972103 -59.528614,35.540997 -59.961933,36.048347 -60.46928,36.481667 -61.03817,36.830284 -61.654598,37.085613 -62.303368,37.241371 -62.968521,37.29372 -71.128563,37.29372 -71.793716,37.241371 -72.44249,37.085613 -73.058914,36.830284 -73.627808,36.481667 -74.135162,36.048347 -74.568474,35.540997 -74.917091,34.972103 -75.172424,34.355682 -75.328178,33.706905 -75.380531,33.041752 -75.380531,10.708489 -75.328178,10.043334 -75.172424,9.394558 -74.917091,8.7781353 -74.568474,8.2092447 -74.135162,7.7018933 -73.627808,7.2685738 -73.058914,6.9199567 -72.44249,6.6646266 -71.793716,6.5088692 -71.128563,6.4565201 -62.968521,6.4565201 -62.303368,6.5088701  Z" id="polygon5" />
<path transform="translate(0.0,0.0)" style="fill:#e5cd89;stroke-width:1;stroke:#000000;stroke-opacity:1" d="M -23.604748,46.193909 -22.93959,46.141563 -14.779556,46.141563 -14.114401,46.193909 -13.465626,46.34967 -12.849203,46.605 -12.280312,46.953617 -11.772961,47.386936 -11.339641,47.894287 -10.991025,48.463177 -10.735693,49.079597 -10.579935,49.728378 -10.527589,50.393524 -10.527589,58.553562 -10.579937,59.218716 -10.735694,59.867489 -10.991026,60.483917 -11.339643,61.052807 -11.772963,61.560158 -12.280313,61.993477 -12.849205,62.342094 -13.465628,62.597424 -14.114403,62.753185 -14.779557,62.805531 -22.93959,62.805531 -23.604748,62.753185 -24.253525,62.597424 -24.869947,62.342094 -25.438835,61.993477 -25.946188,61.560158 -26.379505,61.052807 -26.728123,60.483917 -26.983454,59.867489 -27.139214,59.218716 -27.191559,58.553562 -27.191559,50.393524 -27.139214,49.728378 -26.983454,49.079597 -26.728123,48.463177 -26.379505,47.894287 -25.946188,47.386936 -25.438835,46.953617 -24.869947,46.605 -24.253525,46.34967  Z" id="polygon6" />
<path transform="translate(0.0,0.0)" style="fill:#e5cd89;stroke-width:1;stroke:#000000;stroke-opacity:1" d="M -32.013741,44.408199 -31.777328,45.477997 -31.645266,46.56562 -31.61879,47.660919 -31.698149,48.753643 -31.882603,49.833618 -32.170429,50.890743 -32.558941,51.915157 -33.044502,52.897297 -33.622589,53.827984 -34.287804,54.698528 -35.033932,55.500805 -35.854008,56.227329 -36.740376,56.871319 -37.684761,57.426746 -38.678345,57.888439 -39.711842,58.252079 -40.775616,58.514278 -41.859734,58.672577 -42.954063,58.725513 -44.048393,58.672577 -45.132507,58.514278 -46.196281,58.252079 -47.229774,57.888439 -48.223358,57.426746 -49.167744,56.871319 -50.054111,56.227329 -50.874187,55.500805 -51.620316,54.698528 -52.285522,53.827984 -52.863617,52.897297 -53.349178,51.915157 -53.73769,50.890743 -54.025513,49.833618 -54.209965,48.753643 -54.28933,47.660919 -54.262856,46.56562 -54.130791,45.477997 -53.894379,44.408199 -53.555813,43.366215 -53.118267,42.361763 -52.585819,41.40424 -51.96344,40.502571 -51.256943,39.665173 -50.472923,38.899879 -49.618706,38.213825 -48.702263,37.613415 -47.732147,37.104259 -46.717419,36.691113 -45.667561,36.377827 -44.592361,36.167328 -43.501869,36.061588 -42.406258,36.061588 -41.315762,36.167328 -40.240559,36.377827 -39.190701,36.691113 -38.175972,37.104259 -37.205856,37.613415 -36.289413,38.213825 -35.435188,38.899879 -34.651176,39.665173 -33.944679,40.502571 -33.322296,41.40424 -32.789852,42.361763 -32.352306,43.366215  Z" id="polygon7" />
<path transform="translate(0.0,0.0)" style="fill:#e5cd89;stroke-width:1;stroke:#000000;stroke-opacity:1" d="M -61.551201,58.553562 -61.60355,59.218716 -61.759308,59.867489 -62.014637,60.483917 -62.363255,61.052807 -62.796574,61.560158 -63.303925,61.993477 -63.872818,62.342087 -64.489235,62.59742 -65.138016,62.753178 -65.803169,62.805527 -73.963211,62.805527 -74.628365,62.753178 -75.277145,62.59742 -75.893562,62.342087 -76.462456,61.993473 -76.96981,61.560154 -77.403122,61.052799 -77.75174,60.483913 -78.007072,59.867485 -78.162827,59.218712 -78.215179,58.553558 -78.215179,50.39352 -78.162827,49.728371 -78.007072,49.079594 -77.75174,48.463169 -77.403122,47.894283 -76.96981,47.386929 -76.462456,46.953613 -75.893562,46.604996 -75.277145,46.349667 -74.628365,46.193905 -73.963211,46.14156 -65.803169,46.14156 -65.138016,46.193905 -64.489235,46.349667 -63.872818,46.604996 -63.303925,46.953613 -62.796574,47.386929 -62.363255,47.894283 -62.014637,48.463169 -61.759308,49.079594 -61.60355,49.728371 -61.551201,50.393524  Z" id="polygon8" />
<path transform="translate(0.0,0.0)" style="fill:#e5cd89;stroke-width:1;stroke:#000000;stroke-opacity:1" d="M -6.1036682,1.4362749 -6.0513196,0.77112067 -5.8955617,0.1223444 -5.6402311,-0.49407807 -5.2916145,-1.0629691 -4.858295,-1.5703206 -4.350944,-2.0036397 -3.7820532,-2.3522568 -3.1656303,-2.6075869 -2.516854,-2.763344 -1.8516996,-2.8156931 23.66011,-2.8156919 24.325264,-2.7633431 24.974041,-2.6075854 25.590462,-2.3522553 26.159353,-2.0036383 26.666706,-1.5703192 27.100025,-1.0629677 27.448641,-0.49407667 27.703972,0.122346 27.859728,0.77112228 27.912079,1.4362766 27.912079,43.955963 27.859728,44.621117 27.703972,45.26989 27.448641,45.886314 27.100025,46.455204 26.666706,46.962551 26.159348,47.395878 25.590462,47.744492 24.974039,47.999825 24.325264,48.155579 23.660109,48.207932 -1.8517021,48.207932 -2.5168564,48.155579 -3.1656327,47.999825 -3.7820559,47.744492 -4.3509464,47.395878 -4.8582973,46.962551 -5.2916164,46.455204 -5.6402335,45.886314 -5.8955641,45.26989 -6.051322,44.621117 -6.1036701,43.955963  Z" id="polygon9" />
<path transform="translate(0.0,0.0)" style="fill:#e5cd89;stroke-width:1;stroke:#000000;stroke-opacity:1" d="M -86.162003,81.984047 -85.48558,81.725334 -84.778702,81.567871 -84.056427,81.514999 -83.334152,81.567871 -82.627274,81.725334 -81.950851,81.984047 -81.319305,82.338478 -80.746101,82.781097 -80.243446,83.302452 -79.82206,83.891441 -79.490929,84.535507 -79.257095,85.220924 -79.125557,85.933083 -79.099106,86.656807 -79.178307,87.376671 -79.361488,88.077324 -79.64473,88.743843 -80.021996,89.362022 -80.485252,89.918678 -81.02462,90.401955 -81.628601,90.801544 -82.284332,91.108948 -82.977837,91.317589 -83.694328,91.423027 -84.418518,91.423027 -85.13501,91.317589 -85.828514,91.108948 -86.484245,90.801544 -87.088226,90.401955 -87.627594,89.918678 -88.090851,89.362022 -88.468124,88.743843 -88.751358,88.077324 -88.93454,87.376671 -89.013748,86.656807 -88.987297,85.933083 -88.855751,85.220924 -88.621918,84.535507 -88.290787,83.891441 -87.8694,83.302452 -87.366745,82.781097 -86.793541,82.338478  Z" id="polygon10" />
<path transform="translate(0.0,0.0)" style="fill:#e5cd89;stroke-width:1;stroke:#000000;stroke-opacity:1" d="M 81.091438,85.93309 81.222984,85.22094 81.456818,84.535515 81.787949,83.891449 82.209335,83.30246 82.711983,82.781105 83.285194,82.338493 83.916733,81.984055 84.593155,81.725349 85.300034,81.567879 86.022308,81.515015 86.744583,81.567879 87.451462,81.725349 88.127884,81.984055 88.759422,82.338493 89.332634,82.781105 89.835281,83.30246 90.256668,83.891449 90.587799,84.535515 90.82164,85.22094 90.953186,85.93309 90.97963,86.656822 90.900421,87.376678 90.717247,88.077332 90.434006,88.743851 90.05674,89.36203 89.593483,89.918686 89.054115,90.40197 88.450134,90.801559 87.794403,91.108955 87.100899,91.317604 86.384407,91.423042 85.66021,91.423042 84.943718,91.317604 84.250214,91.108955 83.594482,90.801559 82.990501,90.40197 82.451134,89.918686 81.987877,89.36203 81.610611,88.743851 81.32737,88.077332 81.144196,87.376678 81.064987,86.656822  Z" id="polygon11" />
<path transform="translate(0.0,0.0)" style="fill:#e5cd89;stroke-width:1;stroke:#000000;stroke-opacity:1" d="M 61.090725,-4.4573112 60.441948,-4.6130691 59.825523,-4.8683996 59.25663,-5.2170162 58.749279,-5.6503353 42.429211,-5.6503358 41.921856,-5.2170167 41.352962,-4.8684011 40.736542,-4.6130705 40.087769,-4.4573126 39.422615,-4.4049644 38.757462,-4.4573126 38.108681,-4.61307 37.49226,-4.8684006 36.92337,-5.2170167 36.416012,-5.6503358 35.982693,-6.1576877 35.634079,-6.7265782 35.378746,-7.3430009 35.222992,-7.9917769 35.170639,-8.6569319 35.222992,-9.3220863 35.378746,-9.9708614 35.634079,-10.587285 35.982693,-11.156177 36.416012,-11.663527 36.416019,-61.999352 35.9827,-62.506702 35.634083,-63.075592 35.378754,-63.69202 35.222992,-64.340797 35.170647,-65.005943 35.222996,-65.671097 35.378754,-66.319878 35.634083,-66.936295 35.9827,-67.505188 36.416019,-68.012543 36.92337,-68.445869 37.492264,-68.794479 38.108681,-69.049805 38.757462,-69.205566 39.422615,-69.257919 40.087769,-69.205566 40.736546,-69.049805 41.35297,-68.794479 41.921856,-68.445862 42.429211,-68.012543 58.749287,-68.012543 59.256638,-68.445862 59.825531,-68.794479 60.441952,-69.049805 61.090733,-69.205566 61.755886,-69.257919 62.42104,-69.205566 63.069809,-69.049805 63.686234,-68.794479 64.255127,-68.445862 64.762474,-68.012543 65.195793,-67.505188 65.544418,-66.936295 65.799744,-66.319878 65.955505,-65.671097 66.007851,-65.005943 65.955505,-64.340797 65.799744,-63.69202 65.544418,-63.075592 65.195793,-62.506699 64.762466,-61.999352 64.762466,-11.663527 65.195786,-11.156176 65.544411,-10.587284 65.799744,-9.9708614 65.955498,-9.3220844 66.007851,-8.6569309 65.955498,-7.9917769 65.799744,-7.3430004 65.544411,-6.7265778 65.195786,-6.1576867 64.762466,-5.6503353 64.255119,-5.2170162 63.68623,-4.8683996 63.069801,-4.6130691 62.421032,-4.4573112 61.755878,-4.404963  Z" id="polygon12" />
<path transform="translate(0.0,0.0)" style="fill:#e5cd89;stroke-width:1;stroke:#000000;stroke-opacity:1" d="M 75.348885,-32.631817 74.683731,-32.579472 74.018578,-32.631817 73.369804,-32.787575 72.753372,-33.042908 72.184486,-33.391521 71.677139,-33.824844 71.24382,-34.332195 70.895203,-34.901085 70.63987,-35.517506 70.484108,-36.166286 70.431763,-36.83144 70.484108,-37.496593 70.63987,-38.14537 70.895203,-38.761787 71.24382,-39.330681 71.677139,-39.838036 72.184486,-40.271351 72.753372,-40.619968 73.369804,-40.875301 74.018578,-41.031055 74.683731,-41.083405 75.348885,-41.031055 75.997665,-40.875301 76.614082,-40.619968 77.182976,-40.271351 77.690323,-39.838036 78.12365,-39.330681 78.472267,-38.761787 78.727592,-38.14537 78.883354,-37.496593 78.935699,-36.83144 78.883354,-36.166286 78.727592,-35.517506 78.472267,-34.901085 78.12365,-34.332195 77.690323,-33.824844 77.182976,-33.391521 76.614082,-33.042908 75.997665,-32.787575  Z" id="polygon13" />
<path transform="translate(0.0,0.0)" style="fill:#e5cd89;stroke-width:1;stroke:#000000;stroke-opacity:1" d="M 90.953194,-84.145638 90.979645,-83.421921 90.900436,-82.702049 90.717255,-82.001396 90.434021,-81.334877 90.056747,-80.716698 89.593491,-80.160042 89.054123,-79.676773 88.450142,-79.277176 87.794411,-78.96978 87.100906,-78.761139 86.384415,-78.655693 85.660225,-78.655693 84.943733,-78.761139 84.250229,-78.96978 83.594498,-79.277176 82.990517,-79.676773 82.451149,-80.160042 81.987892,-80.716698 81.610626,-81.334877 81.327385,-82.001396 81.144203,-82.702049 81.064995,-83.421921 81.091454,-84.145638 81.222992,-84.857796 81.456825,-85.543213 81.787956,-86.187279 82.209343,-86.776276 82.711998,-87.29763 83.285202,-87.740242 83.916748,-88.094681 84.59317,-88.353394 85.300049,-88.510849 86.022324,-88.563721 86.744598,-88.510849 87.451477,-88.353394 88.127899,-88.094681 88.759438,-87.740242 89.332642,-87.29763 89.835297,-86.776276 90.256683,-86.187279 90.587814,-85.543213 90.821648,-84.857796  Z" id="polygon14" />
<path transform="translate(0.0,0.0)" style="fill:#e5cd89;stroke-width:1;stroke:#000000;stroke-opacity:1" d="M 24.564402,-40.619968 25.180824,-40.875301 25.829605,-41.031055 26.494759,-41.083405 27.159912,-41.031055 27.808685,-40.875301 28.425114,-40.619968 28.994001,-40.271351 29.501352,-39.838036 29.934671,-39.330681 30.283287,-38.761787 30.538618,-38.14537 30.69438,-37.496593 30.746725,-36.83144 30.69438,-36.166286 30.538618,-35.517506 30.283287,-34.901085 29.934671,-34.332195 29.501352,-33.824844 28.994001,-33.391521 28.425114,-33.042908 27.808685,-32.787575 27.159912,-32.631817 26.494759,-32.579472 25.829605,-32.631817 25.180824,-32.787575 24.564402,-33.042908 23.99551,-33.391521 23.488161,-33.824844 23.054842,-34.332195 22.706224,-34.901085 22.450893,-35.517506 22.295137,-36.166286 22.242788,-36.83144 22.295137,-37.496593 22.450893,-38.14537 22.706224,-38.761787 23.054842,-39.330681 23.488161,-39.838036 23.99551,-40.271351  Z" id="polygon15" />
<path transform="translate(0.0,0.0)" style="fill:#e5cd89;stroke-width:1;stroke:#000000;stroke-opacity:1" d="M -10.527584,-56.249584 -10.579931,-55.584423 -10.735688,-54.93565 -10.99102,-54.319229 -11.339637,-53.750336 -11.772957,-53.242981 -12.280308,-52.809662 -12.849199,-52.461048 -13.465622,-52.205715 -14.114397,-52.049961 -14.779552,-51.997608 -22.939585,-51.997608 -23.604742,-52.049961 -24.253519,-52.205715 -24.869942,-52.461048 -25.438829,-52.809662 -25.946182,-53.242981 -26.379501,-53.750336 -26.728117,-54.319229 -26.983448,-54.93565 -27.139208,-55.584423 -27.191555,-56.249584 -27.191555,-64.409615 -27.139208,-65.074768 -26.983448,-65.723549 -26.728117,-66.339973 -26.379501,-66.908859 -25.946182,-67.416214 -25.438829,-67.849533 -24.869942,-68.198151 -24.253519,-68.453476 -23.604742,-68.609238 -22.939585,-68.661583 -14.779552,-68.661583 -14.114397,-68.609238 -13.465622,-68.453476 -12.849199,-68.198151 -12.280308,-67.849533 -11.772957,-67.416214 -11.339637,-66.908859 -10.99102,-66.339973 -10.735688,-65.723549 -10.579931,-65.074768 -10.527584,-64.409615  Z" id="polygon16" />
<path transform="translate(0.0,0.0)" style="fill:#e5cd89;stroke-width:1;stroke:#000000;stroke-opacity:1" d="M -79.490921,-85.543228 -79.257088,-84.857803 -79.125542,-84.145653 -79.099091,-83.421928 -79.178299,-82.702065 -79.361473,-82.001411 -79.644714,-81.334892 -80.02198,-80.716713 -80.485237,-80.160057 -81.024605,-79.676781 -81.628586,-79.277184 -82.284317,-78.969788 -82.977821,-78.761147 -83.694313,-78.655701 -84.41851,-78.655701 -85.135002,-78.761147 -85.828506,-78.969788 -86.484238,-79.277184 -87.088219,-79.676781 -87.627586,-80.160057 -88.090843,-80.716713 -88.468109,-81.334892 -88.75135,-82.001411 -88.934525,-82.702065 -89.013733,-83.421928 -88.987289,-84.145653 -88.855743,-84.857803 -88.621902,-85.543228 -88.290771,-86.187294 -87.869385,-86.776283 -87.366737,-87.297638 -86.793526,-87.740257 -86.161987,-88.094688 -85.485565,-88.353401 -84.778687,-88.510864 -84.056412,-88.563728 -83.334137,-88.510864 -82.627258,-88.353401 -81.950836,-88.094688 -81.319298,-87.740257 -80.746086,-87.297638 -80.243439,-86.776283 -79.822052,-86.187294  Z" id="polygon17" />
</svg>
