<?xml version="1.0" encoding="UTF-8" standalone="no"?>
<svg
   xmlns:dc="http://purl.org/dc/elements/1.1/"
   xmlns:cc="http://creativecommons.org/ns#"
   xmlns:rdf="http://www.w3.org/1999/02/22-rdf-syntax-ns#"
   xmlns:svg="http://www.w3.org/2000/svg"
   xmlns="http://www.w3.org/2000/svg"
   xmlns:sodipodi="http://sodipodi.sourceforge.net/DTD/sodipodi-0.dtd"
   xmlns:inkscape="http://www.inkscape.org/namespaces/inkscape"
   version="1.0"
   id="Layer_1"
   x="0px"
   y="0px"
   viewBox="-235.1 -325.1 612 792"
   style="enable-background:new -235.1 -325.1 612 792;"
   xml:space="preserve"
   sodipodi:docname="face_inkscape.svg"
   inkscape:version="0.92.4 (5da689c313, 2019-01-14)"><metadata
   id="metadata58"><rdf:RDF><cc:Work
       rdf:about=""><dc:format>image/svg+xml</dc:format><dc:type
         rdf:resource="http://purl.org/dc/dcmitype/StillImage" /><dc:title></dc:title></cc:Work></rdf:RDF></metadata><defs
   id="defs56" /><sodipodi:namedview
   pagecolor="#ffffff"
   bordercolor="#666666"
   borderopacity="1"
   objecttolerance="10"
   gridtolerance="10"
   guidetolerance="10"
   inkscape:pageopacity="0"
   inkscape:pageshadow="2"
   inkscape:window-width="2880"
   inkscape:window-height="1706"
   id="namedview54"
   showgrid="false"
   inkscape:zoom="5.189021"
   inkscape:cx="306.26343"
   inkscape:cy="463.06576"
   inkscape:window-x="-11"
   inkscape:window-y="-11"
   inkscape:window-maximized="1"
   inkscape:current-layer="Layer_1" />
<path
   transform="translate(0.0,0.0)"
   style="fill:#e5cd89;stroke-width:1;stroke:#000000;stroke-opacity:1"
   d="M -80.366699,-6.2255101 -79.532051,-5.7642174 -78.754295,-5.2123737 -78.043228,-4.5769191 -77.407768,-3.8658454 -76.855934,-3.0880954 -76.394638,-2.253448 -76.029694,-1.3724003 -75.765694,-0.45603183 -75.605957,0.48413327 -75.552483,1.4362721 -75.605957,2.388411 -75.765694,3.3285756 -76.029694,4.2449441 -76.394638,5.1259918 -76.855934,5.960638 -77.407768,6.738389 -78.043228,7.4494629 -78.754295,8.084918 -79.532051,8.6367617 -80.366699,9.0980539 -81.247749,9.4629955 -82.164116,9.7269964 -83.104279,9.8867369 -84.056419,9.9402084 -86.89106,9.9402084 -87.556221,9.9925566 -88.204994,10.148314 -88.821419,10.403645 -89.390312,10.752261 -89.897659,11.185579 -90.330978,11.692931 -90.679596,12.261822 -90.934929,12.878244 -91.090683,13.527021 -91.143036,14.192177 -91.143044,77.804855 -91.17923,78.358467 -91.287201,78.902649 -91.465088,79.428139 -91.709892,79.925995 -92.017433,80.387741 -92.599792,81.236244 -93.092056,82.140007 -93.489044,83.089485 -93.786552,84.074661 -93.981476,85.085159 -94.071739,86.110321 -94.056396,87.139336 -93.935616,88.161346 -93.710663,89.165588 -93.383904,90.141464 -92.958794,91.078682 -92.439804,91.967369 -91.83242,92.798141 -91.143044,93.562256 -90.378937,94.251633 -89.548157,94.859024 -88.659477,95.377998 -87.722252,95.803123 -86.746384,96.129875 -85.742134,96.354836 -84.720131,96.475616 -83.691116,96.490959 -82.665947,96.400696 -81.655449,96.205772 -80.670273,95.908249 -79.720802,95.511269 -78.817032,95.018997 -77.968529,94.436646 -77.506783,94.129112 -77.008926,93.884308 -76.483437,93.706413 -75.939255,93.59845 -75.385651,93.562256 -11.772964,93.562263 -11.107809,93.509903 -10.459034,93.354149 -9.8426113,93.098816 -9.2737198,92.750198 -8.7663689,92.316887 -8.3330488,91.809532 -7.9844317,91.240639 -7.7291012,90.624214 -7.5733433,89.975441 -7.5209951,89.31028 -7.5209951,86.475639 -7.4675236,85.523499 -7.3077831,84.583336 -7.0437822,83.666969 -6.6788402,82.785919 -6.2175474,81.951271 -5.6657038,81.173523 -5.0302491,80.462448 -4.3191762,79.826988 -3.541425,79.275154 -2.7067776,78.813858 -1.8257298,78.448921 -0.90936154,78.184914 0.030803623,78.025177 0.98294222,77.971703 1.935081,78.025177 2.875246,78.184914 3.7916143,78.448921 4.6726618,78.813858 5.5073094,79.275154 6.2850595,79.826988 6.9961329,80.462448 7.6315875,81.173523 8.1834307,81.951271 8.6447239,82.785919 9.0096655,83.666969 9.2736673,84.583336 9.4334068,85.523499 9.4868784,86.475639 9.4868784,89.31028 9.5392265,89.975441 9.6949844,90.624214 9.9503155,91.240639 10.298932,91.809532 10.732251,92.316887 11.239601,92.750198 11.808494,93.098816 12.424916,93.354149 13.073691,93.509903 13.738846,93.562263 77.351532,93.562263 77.905144,93.598457 78.449326,93.706429 78.974815,93.884315 79.472672,94.12912 79.93441,94.436653 80.782921,95.019012 81.686684,95.511276 82.636162,95.908264 83.621338,96.20578 84.631836,96.400703 85.656998,96.490967 86.686012,96.475624 87.708023,96.354843 88.712265,96.129883 89.688141,95.803131 90.625359,95.378014 91.514046,94.859032 92.344818,94.251648 93.108925,93.562263 93.798309,92.798157 94.405693,91.967377 94.924675,91.078697 95.349792,90.141472 95.676544,89.165604 95.901505,88.161354 96.022285,87.139351 96.037628,86.110336 95.947365,85.085175 95.752441,84.074669 95.454926,83.089493 95.057938,82.140022 94.565674,81.236259 93.983322,80.387749 93.675781,79.926003 93.430977,79.428146 93.25309,78.902664 93.145119,78.358475 93.108925,77.804871 93.108932,14.192185 93.05658,13.52703 92.900826,12.878253 92.645493,12.26183 92.296875,11.69294 91.863556,11.185588 91.356209,10.752269 90.787315,10.403653 90.170891,10.148322 89.522118,9.9925642 88.856956,9.9402161 86.022316,9.9402161 85.070175,9.8867445 84.130013,9.7270041 83.213638,9.4630032 82.332596,9.0980606 81.497948,8.6367683 80.720192,8.0849247 80.009125,7.44947 79.373665,6.7383962 78.821831,5.9606452 78.360535,5.125998 77.99559,4.2449508 77.73159,3.3285823 77.571854,2.3884177 77.518379,1.4362788 77.571854,0.48413998 77.73159,-0.45602509 77.99559,-1.3723935 78.360535,-2.2534409 78.821831,-3.0880883 79.373665,-3.8658383 80.009125,-4.5769124 80.720192,-5.2123666 81.497948,-5.7642102 82.332596,-6.225503 83.213638,-6.590445 84.130013,-6.8544464 85.070175,-7.0141864 86.022316,-7.0676579 88.856956,-7.0676579 89.522118,-7.1200061 90.170891,-7.275764 90.787315,-7.5310941 91.356209,-7.8797107 91.863556,-8.3130302 92.296875,-8.8203812 92.645493,-9.3892727 92.900826,-10.005695 93.05658,-10.65447 93.108932,-11.319625 93.10894,-74.932312 93.145126,-75.485916 93.253098,-76.030106 93.430984,-76.555595 93.675789,-77.053452 93.98333,-77.51519 94.565681,-78.363701 95.057953,-79.267464 95.454933,-80.216942 95.752449,-81.20211 95.947372,-82.212616 96.037643,-83.237778 96.022301,-84.266792 95.90152,-85.288803 95.676552,-86.293045 95.3498,-87.268921 94.92469,-88.206139 94.405701,-89.094818 93.798317,-89.925598 93.10894,-90.689705 92.344833,-91.379082 91.514053,-91.986473 90.625374,-92.505447 89.688148,-92.930573 88.71228,-93.257324 87.708031,-93.482285 86.686028,-93.603065 85.657013,-93.618408 84.631844,-93.528145 83.621346,-93.333221 82.636169,-93.035706 81.686699,-92.638718 80.782928,-92.146454 79.934425,-91.564102 79.472679,-91.256561 78.974823,-91.011757 78.449333,-90.83387 77.905151,-90.725899 77.351547,-90.689705 13.738854,-90.689713 13.0737,-90.63736 12.424925,-90.481606 11.808502,-90.226273 11.23961,-89.877655 10.73226,-89.444336 10.29894,-88.936989 9.9503231,-88.368095 9.694993,-87.751671 9.5392351,-87.102898 9.486886,-86.437737 9.486886,-83.603096 9.4334145,-82.650955 9.273674,-81.710793 9.0096731,-80.794418 8.6447306,-79.913376 8.1834383,-79.078728 7.6315942,-78.300972 6.99614,-77.589897 6.2850666,-76.954445 5.5073161,-76.402611 4.6726685,-75.941315 3.7916212,-75.57637 2.8752527,-75.31237 1.9350878,-75.152626 0.9829489,-75.099159 0.030810261,-75.152626 -0.90935481,-75.31237 -1.8257231,-75.57637 -2.7067709,-75.941315 -3.5414183,-76.402611 -4.319169,-76.954445 -5.030242,-77.589897 -5.6656966,-78.300972 -6.2175403,-79.078728 -6.678833,-79.913376 -7.0437751,-80.794418 -7.307776,-81.710793 -7.4675164,-82.650955 -7.520988,-83.603096 -7.520987,-86.437737 -7.5733352,-87.102898 -7.7290931,-87.751671 -7.9844236,-88.368095 -8.3330412,-88.936989 -8.7663603,-89.444336 -9.2737112,-89.877655 -9.8426027,-90.226273 -10.459025,-90.481606 -11.1078,-90.63736 -11.772955,-90.689713 -75.385635,-90.68972 -75.939247,-90.725906 -76.483429,-90.833878 -77.008919,-91.011765 -77.506775,-91.256569 -77.968513,-91.56411 -78.817024,-92.146461 -79.720787,-92.638718 -80.670265,-93.035706 -81.655441,-93.333221 -82.665939,-93.528145 -83.691101,-93.618408 -84.720116,-93.603065 -85.742126,-93.482285 -86.746368,-93.257324 -87.722244,-92.930573 -88.659462,-92.505447 -89.548149,-91.986481 -90.378922,-91.379097 -91.143028,-90.68972 -91.832413,-89.925613 -92.439796,-89.094833 -92.958778,-88.206154 -93.383896,-87.268929 -93.710655,-86.29306 -93.935616,-85.288811 -94.056396,-84.266808 -94.071739,-83.237793 -93.981476,-82.212624 -93.786552,-81.202126 -93.489029,-80.216949 -93.092041,-79.267479 -92.599777,-78.363708 -92.017426,-77.515205 -91.709885,-77.053459 -91.46508,-76.555603 -91.287193,-76.030113 -91.179222,-75.485931 -91.143028,-74.932327 -91.143036,-11.319633 -91.090683,-10.654479 -90.934929,-10.005704 -90.679596,-9.3892813 -90.330978,-8.8203897 -89.897659,-8.3130388 -89.390312,-7.8797193 -88.821419,-7.5311022 -88.204994,-7.2757721 -87.556221,-7.1200132 -86.89106,-7.0676651 -84.056419,-7.0676651 -83.104279,-7.0141935 -82.164116,-6.8544536 -81.247749,-6.5904522  Z"
   id="polygon0" />
<path
   style="fill:#e5cd89;stroke:#000000;stroke-width:1;stroke-opacity:1"
   d="m -74.481613,-30.770546 -0.636597,-0.05139 -0.620109,-0.152836 -0.587555,-0.25034 -0.539788,-0.341343 -0.47805,-0.423511 -0.403915,-0.494709 -0.319336,-0.553105 -0.226471,-0.59716 -0.127754,-0.625751 -0.02571,-0.638153 0.07698,-0.634003 0.177689,-0.613453 0.273788,-0.577 0.362808,-0.525608 0.442414,-0.460609 0.510574,-0.383671 0.565506,-0.296799 0.605797,-0.202247 0.630402,-0.102456 h 0.638656 l 0.630394,0.102456 0.605797,0.202247 0.565514,0.296799 0.51057,0.383671 0.442421,0.460613 0.362801,0.525608 0.273792,0.577 0.177685,0.613456 0.07699,0.634003 -0.02572,0.638146 -0.12775,0.625751 -0.226471,0.59716 -0.319336,0.553105 -0.403911,0.494709 -0.478058,0.423511 -0.539788,0.341343 -0.587555,0.25034 -0.620109,0.152836 z"
   id="polygon1"
   inkscape:connector-curvature="0" />
<path
   style="fill:#e5cd89;stroke:#000000;stroke-width:1;stroke-opacity:1"
   d="m -29.624557,53.621101 -0.636591,0.0514 -0.636593,-0.0514 -0.620106,-0.152835 -0.587561,-0.25034 -0.539787,-0.341343 -0.47805,-0.423511 -0.403919,-0.494709 -0.319331,-0.553105 -0.226474,-0.59716 -0.127751,-0.625752 -0.02572,-0.638153 0.07699,-0.634002 0.177688,-0.61345 0.273789,-0.576999 0.362802,-0.525612 0.442419,-0.460606 0.510577,-0.38367 0.565504,-0.296803 0.605798,-0.202248 0.630391,-0.102447 h 0.638664 l 0.630392,0.102447 0.605799,0.202248 0.565507,0.296803 0.510575,0.38367 0.442419,0.460606 0.362802,0.525612 0.273789,0.576999 0.177688,0.61345 0.07698,0.634002 -0.02571,0.638153 -0.12775,0.625752 -0.226473,0.59716 -0.319334,0.553105 -0.403918,0.494709 -0.478046,0.423511 -0.539793,0.341343 -0.587559,0.25034 z"
   id="polygon2"
   inkscape:connector-curvature="0" />
<path
   style="fill:#e5cd89;stroke:#000000;stroke-width:1;stroke-opacity:1"
   d="m -84.462456,-42.809669 -0.507354,-0.43332 -0.433312,-0.507351 -0.348618,-0.568893 -0.255332,-0.616425 -0.155755,-0.648773 -0.05235,-0.665157 7e-6,-8.160034 0.05235,-0.665154 0.155754,-0.648781 0.255325,-0.616416 0.348618,-0.568894 0.433319,-0.507355 0.507355,-0.433319 0.568893,-0.348617 0.616417,-0.255326 0.648781,-0.155761 0.665154,-0.05235 h 8.160041 l 0.665154,0.05235 0.648781,0.155761 0.616413,0.255326 0.568893,0.348625 0.507355,0.433319 0.433319,0.507355 0.348614,0.568886 0.255333,0.616424 0.155754,0.648781 0.05235,0.665153 -8e-6,8.160031 -0.05235,0.665161 -0.155758,0.648773 -0.255329,0.616421 -0.348618,0.568893 -0.433319,0.507355 -0.507351,0.433319 -0.568893,0.34861 -0.616417,0.255329 -0.648781,0.155758 -0.665153,0.05235 h -8.160042 l -0.665154,-0.05235 -0.64878,-0.155758 -0.616417,-0.255329 z"
   id="polygon3"
   inkscape:connector-curvature="0" />
<path
   style="fill:#e5cd89;stroke:#000000;stroke-width:1;stroke-opacity:1"
   d="m -61.73769,-39.73917 -0.287823,-1.057125 -0.184452,-1.079971 -0.07937,-1.092736 0.02647,-1.095287 0.132065,-1.087628 0.236412,-1.069797 0.338566,-1.041988 0.437546,-1.004452 0.532448,-0.95752 0.622379,-0.901672 0.706497,-0.837391 0.78402,-0.765297 0.854221,-0.686054 0.916447,-0.600411 0.970115,-0.509155 1.014725,-0.413154 1.049862,-0.313275 1.075195,-0.210502 1.090496,-0.105744 h 1.095612 l 1.090492,0.105744 1.075203,0.210502 1.049862,0.313275 1.014725,0.413154 0.970115,0.509155 0.916447,0.600411 0.854222,0.686054 0.784015,0.765297 0.706494,0.837391 0.622383,0.901672 0.532447,0.95752 0.437546,1.004452 0.338566,1.041988 0.23641,1.069797 0.132063,1.087628 0.02648,1.095287 -0.07936,1.092736 -0.184454,1.079971 -0.287828,1.057125 -0.388508,1.024414 -0.485562,0.98214 -0.57809,0.930683 -0.665215,0.870552 -0.746128,0.802273 -0.820076,0.726524 -0.886364,0.643982 -0.944389,0.555431 -0.99358,0.461693 -1.033501,0.36364 -1.063774,0.262199 -1.084114,0.158299 -1.09433,0.05293 -1.09433,-0.05293 -1.084118,-0.158299 -1.063774,-0.262199 -1.033496,-0.36364 -0.993584,-0.461693 -0.944386,-0.555431 -0.886367,-0.643982 -0.820076,-0.726524 -0.746129,-0.802273 -0.665206,-0.870552 -0.578095,-0.930683 -0.485561,-0.98214 z"
   id="polygon4"
   inkscape:connector-curvature="0" />
<path
   style="fill:#e5cd89;stroke:#000000;stroke-width:1;stroke-opacity:1"
   d="m -69.654598,16.664627 0.616428,0.255331 0.56889,0.348616 0.507347,0.43332 0.433319,0.507351 0.348621,0.56889 0.255333,0.616423 0.155754,0.648777 0.05235,0.665155 v 22.333262 l -0.05235,0.665153 -0.155754,0.648777 -0.255333,0.616421 -0.348621,0.568894 -0.433319,0.50735 -0.507347,0.43332 -0.56889,0.348617 -0.616428,0.255329 -0.64877,0.155758 -0.665153,0.05235 h -8.160042 l -0.665153,-0.05235 -0.648774,-0.155758 -0.616424,-0.255329 -0.568894,-0.348617 -0.507354,-0.43332 -0.433312,-0.50735 -0.348617,-0.568894 -0.255333,-0.616421 -0.155754,-0.648777 -0.05235,-0.665153 V 20.708489 l 0.05235,-0.665155 0.155754,-0.648776 0.255333,-0.616423 0.348617,-0.56889 0.433312,-0.507352 0.507354,-0.433319 0.568894,-0.348617 0.616424,-0.25533 0.648774,-0.155758 0.665153,-0.05235 h 8.160042 l 0.665153,0.05235 z"
   id="polygon5"
   inkscape:connector-curvature="0" />
<path
   style="fill:#e5cd89;stroke:#000000;stroke-width:1;stroke-opacity:1"
   d="m -31.604748,56.193909 0.665158,-0.05235 h 8.160034 l 0.665155,0.05235 0.648775,0.155761 0.616423,0.25533 0.568891,0.348617 0.507351,0.433319 0.43332,0.507351 0.348616,0.56889 0.255332,0.61642 0.155758,0.648781 0.05235,0.665146 v 8.160038 l -0.05235,0.665154 -0.155757,0.648773 -0.255332,0.616428 -0.348617,0.56889 -0.43332,0.507351 -0.50735,0.433319 -0.568892,0.348617 -0.616423,0.25533 -0.648775,0.155761 -0.665154,0.05235 h -8.160033 l -0.665158,-0.05235 -0.648777,-0.155761 -0.616422,-0.25533 -0.568888,-0.348617 -0.507353,-0.433319 -0.433317,-0.507351 -0.348618,-0.56889 -0.255331,-0.616428 -0.15576,-0.648773 -0.05235,-0.665154 v -8.160038 l 0.05235,-0.665146 0.15576,-0.648781 0.255331,-0.61642 0.348618,-0.56889 0.433317,-0.507351 0.507353,-0.433319 0.568888,-0.348617 0.616422,-0.25533 z"
   id="polygon6"
   inkscape:connector-curvature="0" />
<path
   style="fill:#e5cd89;stroke:#000000;stroke-width:1;stroke-opacity:1"
   d="m -40.013741,54.408199 0.236413,1.069798 0.132062,1.087623 0.02648,1.095299 -0.07936,1.092724 -0.184454,1.079975 -0.287826,1.057125 -0.388512,1.024414 -0.485561,0.98214 -0.578087,0.930687 -0.665215,0.870544 -0.746128,0.802277 -0.820076,0.726524 -0.886368,0.64399 -0.944385,0.555427 -0.993584,0.461693 -1.033497,0.36364 -1.063774,0.262199 -1.084118,0.158299 -1.094329,0.05294 -1.09433,-0.05294 -1.084114,-0.158299 -1.063774,-0.262199 -1.033493,-0.36364 -0.993584,-0.461693 -0.944386,-0.555427 -0.886367,-0.64399 -0.820076,-0.726524 -0.746129,-0.802277 -0.665206,-0.870544 -0.578095,-0.930687 -0.485561,-0.98214 -0.388512,-1.024414 -0.287823,-1.057125 -0.184452,-1.079975 -0.07937,-1.092724 0.02647,-1.095299 0.132065,-1.087623 0.236412,-1.069798 0.338566,-1.041984 0.437546,-1.004452 0.532448,-0.957523 0.622379,-0.901669 0.706497,-0.837398 0.78402,-0.765294 0.854217,-0.686054 0.916443,-0.60041 0.970116,-0.509156 1.014728,-0.413146 1.049858,-0.313286 1.0752,-0.210499 1.090492,-0.10574 h 1.095611 l 1.090496,0.10574 1.075203,0.210499 1.049858,0.313286 1.014729,0.413146 0.970116,0.509156 0.916443,0.60041 0.854225,0.686054 0.784012,0.765294 0.706497,0.837398 0.622383,0.901669 0.532444,0.957523 0.437546,1.004452 z"
   id="polygon7"
   inkscape:connector-curvature="0" />
<path
   style="fill:#e5cd89;stroke:#000000;stroke-width:1;stroke-opacity:1"
   d="m -69.551201,68.553562 -0.05235,0.665154 -0.155758,0.648773 -0.255329,0.616428 -0.348618,0.56889 -0.433319,0.507351 -0.507351,0.433319 -0.568893,0.34861 -0.616417,0.255333 -0.648781,0.155758 -0.665153,0.05235 h -8.160042 l -0.665154,-0.05235 -0.64878,-0.155758 -0.616417,-0.255333 -0.568894,-0.348614 -0.507354,-0.433319 -0.433312,-0.507355 -0.348618,-0.568886 -0.255332,-0.616428 -0.155755,-0.648773 -0.05235,-0.665154 V 60.39352 l 0.05235,-0.665149 0.155755,-0.648777 0.255332,-0.616425 0.348618,-0.568886 0.433312,-0.507354 0.507354,-0.433316 0.568894,-0.348617 0.616417,-0.255329 0.64878,-0.155762 0.665154,-0.05235 h 8.160042 l 0.665153,0.05235 0.648781,0.155762 0.616417,0.255329 0.568893,0.348617 0.507351,0.433316 0.433319,0.507354 0.348618,0.568886 0.255329,0.616425 0.155758,0.648777 0.05235,0.665153 z"
   id="polygon8"
   inkscape:connector-curvature="0" />
<path
   style="fill:#e5cd89;stroke:#000000;stroke-width:1;stroke-opacity:1"
   d="m 29.896332,-2.563725 0.05235,-0.665154 0.155758,-0.648777 0.25533,-0.616422 0.348617,-0.568891 0.433319,-0.507352 0.507351,-0.4333187 0.568891,-0.3486171 0.616423,-0.2553301 0.648776,-0.1557571 0.665155,-0.052349 25.511809,1.2e-6 0.665154,0.052349 0.648777,0.1557577 0.616421,0.2553301 0.568891,0.348617 0.507353,0.433319 0.433319,0.507352 0.348616,0.568891 0.255331,0.616422 0.155756,0.648777 0.05235,0.665154 v 42.519686 l -0.05235,0.665154 -0.155756,0.648773 -0.255331,0.616424 -0.348616,0.56889 -0.433319,0.507347 -0.507358,0.433327 -0.568886,0.348614 -0.616423,0.255333 -0.648775,0.155754 -0.665155,0.05235 H 34.148298 l -0.665154,-0.05235 -0.648777,-0.155754 -0.616423,-0.255333 -0.56889,-0.348614 -0.507351,-0.433327 -0.433319,-0.507347 -0.348618,-0.56889 -0.25533,-0.616424 -0.155758,-0.648773 -0.05235,-0.665154 z"
   id="polygon9"
   inkscape:connector-curvature="0" />
<path
   transform="translate(0.0,0.0)"
   style="fill:#e5cd89;stroke-width:1;stroke:#000000;stroke-opacity:1"
   d="M -86.162003,81.984047 -85.48558,81.725334 -84.778702,81.567871 -84.056427,81.514999 -83.334152,81.567871 -82.627274,81.725334 -81.950851,81.984047 -81.319305,82.338478 -80.746101,82.781097 -80.243446,83.302452 -79.82206,83.891441 -79.490929,84.535507 -79.257095,85.220924 -79.125557,85.933083 -79.099106,86.656807 -79.178307,87.376671 -79.361488,88.077324 -79.64473,88.743843 -80.021996,89.362022 -80.485252,89.918678 -81.02462,90.401955 -81.628601,90.801544 -82.284332,91.108948 -82.977837,91.317589 -83.694328,91.423027 -84.418518,91.423027 -85.13501,91.317589 -85.828514,91.108948 -86.484245,90.801544 -87.088226,90.401955 -87.627594,89.918678 -88.090851,89.362022 -88.468124,88.743843 -88.751358,88.077324 -88.93454,87.376671 -89.013748,86.656807 -88.987297,85.933083 -88.855751,85.220924 -88.621918,84.535507 -88.290787,83.891441 -87.8694,83.302452 -87.366745,82.781097 -86.793541,82.338478  Z"
   id="polygon10" />
<path
   transform="translate(0.0,0.0)"
   style="fill:#e5cd89;stroke-width:1;stroke:#000000;stroke-opacity:1"
   d="M 81.091438,85.93309 81.222984,85.22094 81.456818,84.535515 81.787949,83.891449 82.209335,83.30246 82.711983,82.781105 83.285194,82.338493 83.916733,81.984055 84.593155,81.725349 85.300034,81.567879 86.022308,81.515015 86.744583,81.567879 87.451462,81.725349 88.127884,81.984055 88.759422,82.338493 89.332634,82.781105 89.835281,83.30246 90.256668,83.891449 90.587799,84.535515 90.82164,85.22094 90.953186,85.93309 90.97963,86.656822 90.900421,87.376678 90.717247,88.077332 90.434006,88.743851 90.05674,89.36203 89.593483,89.918686 89.054115,90.40197 88.450134,90.801559 87.794403,91.108955 87.100899,91.317604 86.384407,91.423042 85.66021,91.423042 84.943718,91.317604 84.250214,91.108955 83.594482,90.801559 82.990501,90.40197 82.451134,89.918686 81.987877,89.36203 81.610611,88.743851 81.32737,88.077332 81.144196,87.376678 81.064987,86.656822  Z"
   id="polygon11" />
<path
   style="fill:#e5cd89;stroke:#000000;stroke-width:1.15290773;stroke-opacity:1"
   d="M 19.090725,28.874793 18.441948,28.667761 17.825523,28.328377 17.25663,27.864997 16.749279,27.28903 H 0.429211 l -0.507355,0.575966 -0.568894,0.463378 -0.61642,0.339385 -0.648773,0.207033 -0.665154,0.06958 -0.665153,-0.06958 -0.648781,-0.207032 -0.616421,-0.339385 -0.56889,-0.463379 -0.507358,-0.575966 -0.433319,-0.67437 -0.348614,-0.756167 -0.255333,-0.819347 -0.155754,-0.86235 -0.05235,-0.884122 0.05235,-0.884121 0.155754,-0.862349 0.255333,-0.819348 0.348614,-0.756168 0.433319,-0.674369 7e-6,-66.90618 -0.433319,-0.674368 -0.348617,-0.756167 -0.255329,-0.819353 -0.155762,-0.862352 -0.05234,-0.884109 0.05235,-0.88412 0.155758,-0.862357 0.255329,-0.81934 0.348617,-0.75617 0.433319,-0.674374 0.507351,-0.575975 0.568894,-0.463372 0.616417,-0.339378 0.648781,-0.207037 0.665153,-0.06958 0.665154,0.06958 0.648777,0.207037 0.616424,0.339378 0.568886,0.463381 0.507355,0.575966 h 16.320076 l 0.507351,-0.575966 0.568893,-0.463381 0.616421,-0.339378 0.648781,-0.207037 0.665153,-0.06958 0.665154,0.06958 0.648769,0.207037 0.616425,0.339378 0.568893,0.463381 0.507347,0.575966 0.433319,0.674374 0.348625,0.75617 0.255326,0.81934 0.155761,0.862357 0.05235,0.88412 -0.05235,0.884109 -0.155761,0.862352 -0.255326,0.819353 -0.348625,0.756171 -0.433327,0.674364 v 66.90618 l 0.43332,0.674369 0.348625,0.75617 0.255333,0.819346 0.155754,0.862352 0.05235,0.88412 -0.05235,0.88412 -0.155754,0.862351 -0.255333,0.819346 -0.348625,0.756168 -0.43332,0.674369 -0.507347,0.575967 -0.568889,0.46338 -0.616429,0.339384 -0.648769,0.207032 -0.665154,0.06958 z"
   id="polygon12"
   inkscape:connector-curvature="0" />
<path
   style="fill:#e5cd89;stroke:#000000;stroke-width:1;stroke-opacity:1"
   d="m 33.348885,-32.631817 -0.665154,0.05234 -0.665153,-0.05234 -0.648774,-0.155758 -0.616432,-0.255333 -0.568886,-0.348613 -0.507347,-0.433323 -0.433319,-0.507351 -0.348617,-0.56889 -0.255333,-0.616421 -0.155762,-0.64878 -0.05235,-0.665154 0.05235,-0.665153 0.155762,-0.648777 0.255333,-0.616417 0.348617,-0.568894 0.433319,-0.507355 0.507347,-0.433315 0.568886,-0.348617 0.616432,-0.255333 0.648774,-0.155754 0.665153,-0.05235 0.665154,0.05235 0.64878,0.155754 0.616417,0.255333 0.568894,0.348617 0.507347,0.433315 0.433327,0.507355 0.348617,0.568894 0.255325,0.616417 0.155762,0.648777 0.05235,0.665153 -0.05235,0.665154 -0.155762,0.64878 -0.255325,0.616421 -0.348617,0.56889 -0.433327,0.507351 -0.507347,0.433323 -0.568894,0.348613 -0.616417,0.255333 z"
   id="polygon13"
   inkscape:connector-curvature="0" />
<path
   transform="translate(0.0,0.0)"
   style="fill:#e5cd89;stroke-width:1;stroke:#000000;stroke-opacity:1"
   d="M 90.953194,-84.145638 90.979645,-83.421921 90.900436,-82.702049 90.717255,-82.001396 90.434021,-81.334877 90.056747,-80.716698 89.593491,-80.160042 89.054123,-79.676773 88.450142,-79.277176 87.794411,-78.96978 87.100906,-78.761139 86.384415,-78.655693 85.660225,-78.655693 84.943733,-78.761139 84.250229,-78.96978 83.594498,-79.277176 82.990517,-79.676773 82.451149,-80.160042 81.987892,-80.716698 81.610626,-81.334877 81.327385,-82.001396 81.144203,-82.702049 81.064995,-83.421921 81.091454,-84.145638 81.222992,-84.857796 81.456825,-85.543213 81.787956,-86.187279 82.209343,-86.776276 82.711998,-87.29763 83.285202,-87.740242 83.916748,-88.094681 84.59317,-88.353394 85.300049,-88.510849 86.022324,-88.563721 86.744598,-88.510849 87.451477,-88.353394 88.127899,-88.094681 88.759438,-87.740242 89.332642,-87.29763 89.835297,-86.776276 90.256683,-86.187279 90.587814,-85.543213 90.821648,-84.857796  Z"
   id="polygon14" />
<path
   style="fill:#e5cd89;stroke:#000000;stroke-width:1;stroke-opacity:1"
   d="m -17.435598,-40.619968 0.616422,-0.255333 0.648781,-0.155754 0.665154,-0.05235 0.665153,0.05235 0.648773,0.155754 0.616429,0.255333 0.568887,0.348617 0.507351,0.433315 0.433319,0.507355 0.348616,0.568894 0.255331,0.616417 0.155762,0.648777 0.05235,0.665153 -0.05235,0.665154 -0.155762,0.64878 -0.255331,0.616421 -0.348616,0.56889 -0.433319,0.507351 -0.507351,0.433323 -0.568887,0.348613 -0.616429,0.255333 -0.648773,0.155758 -0.665153,0.05234 -0.665154,-0.05234 -0.648781,-0.155758 -0.616422,-0.255333 -0.568892,-0.348613 -0.507349,-0.433323 -0.433319,-0.507351 -0.348618,-0.56889 -0.255331,-0.616421 -0.155756,-0.64878 -0.05235,-0.665154 0.05235,-0.665153 0.155756,-0.648777 0.255331,-0.616417 0.348618,-0.568894 0.433319,-0.507355 0.507349,-0.433315 z"
   id="polygon15"
   inkscape:connector-curvature="0" />
<path
   style="fill:#e5cd89;stroke:#000000;stroke-width:1;stroke-opacity:1"
   d="m -18.527584,-46.249584 -0.05235,0.665161 -0.155757,0.648773 -0.255332,0.616421 -0.348617,0.568893 -0.43332,0.507355 -0.507351,0.433319 -0.568891,0.348614 -0.616423,0.255333 -0.648775,0.155754 -0.665155,0.05235 h -8.160033 l -0.665157,-0.05235 -0.648777,-0.155754 -0.616423,-0.255333 -0.568887,-0.348614 -0.507353,-0.433319 -0.433319,-0.507355 -0.348616,-0.568893 -0.255331,-0.616421 -0.15576,-0.648773 -0.05235,-0.665161 v -8.160031 l 0.05235,-0.665153 0.15576,-0.648781 0.255331,-0.616424 0.348616,-0.568886 0.433319,-0.507355 0.507353,-0.433319 0.568887,-0.348618 0.616423,-0.255325 0.648777,-0.155762 0.665157,-0.05234 h 8.160033 l 0.665155,0.05234 0.648775,0.155762 0.616423,0.255325 0.568891,0.348618 0.507351,0.433319 0.43332,0.507355 0.348617,0.568886 0.255332,0.616424 0.155757,0.648781 0.05235,0.665153 z"
   id="polygon16"
   inkscape:connector-curvature="0" />
<path
   transform="translate(0.0,0.0)"
   style="fill:#e5cd89;stroke-width:1;stroke:#000000;stroke-opacity:1"
   d="M -79.490921,-85.543228 -79.257088,-84.857803 -79.125542,-84.145653 -79.099091,-83.421928 -79.178299,-82.702065 -79.361473,-82.001411 -79.644714,-81.334892 -80.02198,-80.716713 -80.485237,-80.160057 -81.024605,-79.676781 -81.628586,-79.277184 -82.284317,-78.969788 -82.977821,-78.761147 -83.694313,-78.655701 -84.41851,-78.655701 -85.135002,-78.761147 -85.828506,-78.969788 -86.484238,-79.277184 -87.088219,-79.676781 -87.627586,-80.160057 -88.090843,-80.716713 -88.468109,-81.334892 -88.75135,-82.001411 -88.934525,-82.702065 -89.013733,-83.421928 -88.987289,-84.145653 -88.855743,-84.857803 -88.621902,-85.543228 -88.290771,-86.187294 -87.869385,-86.776283 -87.366737,-87.297638 -86.793526,-87.740257 -86.161987,-88.094688 -85.485565,-88.353401 -84.778687,-88.510864 -84.056412,-88.563728 -83.334137,-88.510864 -82.627258,-88.353401 -81.950836,-88.094688 -81.319298,-87.740257 -80.746086,-87.297638 -80.243439,-86.776283 -79.822052,-86.187294  Z"
   id="polygon17" />
</svg>